<svg id="Lag_1" data-name="Lag 1" xmlns="http://www.w3.org/2000/svg" viewBox="0 0 140.04 132.35"><defs><style>.cls-1{fill:#1cbf13;}</style></defs><title>star_vector</title><polygon class="cls-1" points="50.64 94.89 0.95 97.21 25.66 59.46 3.75 16.73 52.8 29.77 88.95 0.95 94.63 46.83 138.82 71.82 93.27 87.04 84.52 131.29 50.64 94.89"/><path d="M132.53,46.85l5.54,44.75.06.5.44.25,43,24.31-44.2,14.77-.55.18-.11.57-8.5,43L95.12,139.67l-.31-.34-.46,0-48.48,2.26,24-36.69.32-.48-.27-.52L48.67,62.45l47.72,12.7.49.13.39-.32,35.26-28.11M133.3,45,96.65,74.18,46.75,60.91,69,104.39,44,142.71l50.43-2.35,34.4,36.95,8.88-44.93L184,116.89,139.06,91.48,133.3,45Z" transform="translate(-43.96 -44.96)"/></svg>