<?xml version="1.0" encoding="utf-8"?>
<!-- Generator: Adobe Illustrator 24.1.0, SVG Export Plug-In . SVG Version: 6.00 Build 0)  -->
<svg version="1.1" xmlns="http://www.w3.org/2000/svg" xmlns:xlink="http://www.w3.org/1999/xlink" x="0px" y="0px"
	 viewBox="0 0 453.6 305.5" style="enable-background:new 0 0 453.6 305.5;" xml:space="preserve">
<style type="text/css">
	.st0{opacity:5.000000e-02;}
	.st1{opacity:0.1;}
	.st2{fill:url(#SVGID_1_);}
	.st3{fill:url(#SVGID_2_);}
	.st4{fill:url(#SVGID_3_);}
	.st5{fill:url(#SVGID_4_);}
	.st6{opacity:0.25;}
	.st7{opacity:0.5;}
	.st8{fill:#1D1D1B;}
	.st9{fill:#FFFFFF;stroke:url(#SVGID_5_);stroke-miterlimit:10;}
	.st10{fill:#FFFFFF;stroke:url(#SVGID_6_);stroke-miterlimit:10;}
	.st11{fill:#FFFFFF;stroke:url(#SVGID_7_);stroke-miterlimit:10;}
	.st12{fill:#FFFFFF;stroke:url(#SVGID_8_);stroke-miterlimit:10;}
	.st13{fill:#FFFFFF;stroke:url(#SVGID_9_);stroke-miterlimit:10;}
	.st14{fill:#FFFFFF;stroke:url(#SVGID_10_);stroke-miterlimit:10;}
	.st15{fill:#FFFFFF;stroke:url(#SVGID_11_);stroke-miterlimit:10;}
	.st16{fill:#FFFFFF;stroke:url(#SVGID_12_);stroke-miterlimit:10;}
	.st17{fill:#FFFFFF;stroke:url(#SVGID_13_);stroke-miterlimit:10;}
	.st18{fill:#FFFFFF;stroke:url(#SVGID_14_);stroke-miterlimit:10;}
	.st19{fill:#FFFFFF;stroke:url(#SVGID_15_);stroke-miterlimit:10;}
	.st20{fill:#FFFFFF;stroke:url(#SVGID_16_);stroke-miterlimit:10;}
	.st21{fill:#FFFFFF;stroke:url(#SVGID_17_);stroke-miterlimit:10;}
	.st22{fill:#FFFFFF;stroke:url(#SVGID_18_);stroke-miterlimit:10;}
	.st23{fill:#FFFFFF;stroke:url(#SVGID_19_);stroke-miterlimit:10;}
	.st24{fill:#FFFFFF;stroke:url(#SVGID_20_);stroke-miterlimit:10;}
	.st25{fill:#FFFFFF;stroke:url(#SVGID_21_);stroke-miterlimit:10;}
	.st26{fill:#FFFFFF;stroke:url(#SVGID_22_);stroke-miterlimit:10;}
	.st27{fill:#FFFFFF;stroke:url(#SVGID_23_);stroke-miterlimit:10;}
	.st28{fill:#FFFFFF;stroke:url(#SVGID_24_);stroke-miterlimit:10;}
	.st29{fill:#FFFFFF;stroke:url(#SVGID_25_);stroke-miterlimit:10;}
	.st30{fill:#FFFFFF;stroke:url(#SVGID_26_);stroke-miterlimit:10;}
	.st31{fill:#FFFFFF;stroke:url(#SVGID_27_);stroke-miterlimit:10;}
	.st32{fill:#FFFFFF;stroke:url(#SVGID_28_);stroke-miterlimit:10;}
	.st33{fill:#FFFFFF;stroke:url(#SVGID_29_);stroke-miterlimit:10;}
	.st34{fill:#FFFFFF;stroke:url(#SVGID_30_);stroke-miterlimit:10;}
	.st35{fill:#FFFFFF;stroke:url(#SVGID_31_);stroke-miterlimit:10;}
	.st36{fill:#FFFFFF;stroke:url(#SVGID_32_);stroke-miterlimit:10;}
	.st37{fill:#DDF3FF;}
</style>
<g id="baggrund">
</g>
<g id="musling">
	<g>
		<g>
			
				<image style="overflow:visible;opacity:0.3;" width="1136" height="1009" xlink:href="942A8A25B8012562.png"  transform="matrix(0.24 0 0 0.24 85.1066 2.5414)">
			</image>
			<g>
				<g class="st0">
					<path d="M247.9,218.4c0.6-0.6,13.4-7.7,16.3-9.8c9.7-7,13.3-6.4,23.5-12.8c0,0,7.1-1.3,5.5-8.6c3.3-1,6.7-2,10-3.1
						c0,0,7.3-2,4.5-9.5c-0.1-0.3-0.3-0.6-0.4-0.9c2.5-1,4.9-2,7.4-3c0,0,7.1-2.6,3.6-9.8c-0.3-0.6-0.6-1.1-1-1.6
						c2.6-1,5.2-2.1,7.7-3.1c0,0,7.1-2.6,3.6-9.8c-0.5-1-1-1.7-1.6-2.3c1.1-0.7,2.2-1.3,3.3-2c0,0,6.5-3.7,1.8-10.3
						c-0.7-0.9-1.3-1.5-2-2.1c2.4-1.8,4.8-3.5,7.2-5.3c0,0,6.2-4.3,0.8-10.4c-1.1-1.2-2.2-2-3.3-2.4c1.1-0.9,2.1-1.9,3.2-2.8
						c0,0,5.8-4.8-0.1-10.4c-4.1-3.8-7.8-2.5-9.7-1.2c1-1,1.9-2,2.9-3c0,0,5.3-5.2-1.1-10.4c-4.5-3.5-8-1.8-9.8-0.4
						c1.2-1.5,2.5-3.1,3.7-4.6c0,0,4.8-5.6-2-10.2c-6.9-4.5-10.9,1.7-10.9,1.7c-2.1,3-4.1,6-6.2,9.1c3-4.5,6-9,9-13.6
						c0,0,4.3-6-3-10c-7.3-3.9-10.7,2.6-10.7,2.6c-3.3,5.9-6.7,11.9-10,17.9c3.7-6.9,7.5-13.8,11.2-20.7c0,0,3.7-6.3-3.9-9.8
						c-7.6-3.3-10.4,3.5-10.4,3.4c-5.1,11.2-10,22.5-15,33.8c5.4-12.4,10.7-24.7,16-37.1c0,0,3.1-6.6-4.8-9.4
						c-5.6-1.9-8.3,1.1-9.4,3c0.1-0.3,0.2-0.7,0.3-1c0,0,2.5-6.9-5.6-9c-4.9-1.2-7.4,0.9-8.6,2.8c0-0.2,0.1-0.3,0.1-0.5
						c0,0,1.8-7-6.4-8.5c-8.3-1.3-9.1,5.9-9.1,5.9c-0.2,1.1-0.3,2.2-0.5,3.3c0.2-1.8,0.5-3.6,0.7-5.4c0,0,1.2-7.2-7.2-7.9
						c-8.4-0.6-8.5,6.6-8.5,6.6c-0.5,8.4-0.9,16.7-1.3,25.1c0.4-9.1,0.7-18.1,1.1-27.2c0,0,0.5-7.2-7.9-7.3c0,0,0,0,0,0c0,0,0,0,0,0
						c-8.4,0.1-7.9,7.3-7.9,7.3c0.3,9.1,0.7,18.1,1.1,27.2c-0.4-8.4-0.9-16.7-1.3-25.1c0,0-0.1-7.2-8.5-6.6
						c-8.4,0.7-7.2,7.9-7.2,7.9c0.2,1.8,0.5,3.6,0.7,5.4c-0.2-1.1-0.3-2.2-0.5-3.3c0,0-0.8-7.2-9.1-5.9c-8.3,1.4-6.4,8.5-6.4,8.5
						c0,0.2,0.1,0.3,0.1,0.5c-1.2-1.9-3.7-4-8.6-2.8c-8.1,2.1-5.6,9-5.6,9c0.1,0.3,0.2,0.7,0.3,1c-1.1-1.9-3.8-4.9-9.4-3
						c-7.9,2.8-4.8,9.4-4.8,9.4c5.3,12.4,10.6,24.8,16,37.1c-5-11.3-10-22.6-15-33.8c0,0-2.8-6.8-10.4-3.4c-7.6,3.4-3.9,9.8-3.9,9.8
						c3.7,6.9,7.4,13.8,11.2,20.7c-3.3-6-6.6-11.9-10-17.9c0,0-3.4-6.5-10.7-2.6c-7.2,4-3,10.1-3,10c3,4.5,6,9,9,13.6
						c-2.1-3-4.1-6-6.2-9.1c0,0-3.9-6.2-10.9-1.7c-6.8,4.6-2,10.3-2,10.2c1.2,1.5,2.5,3.1,3.7,4.6c-1.8-1.4-5.3-3.1-9.8,0.4
						c-6.4,5.2-1.1,10.4-1.1,10.4c1,1,1.9,2,2.9,3c-1.9-1.2-5.6-2.6-9.7,1.2c-5.9,5.7-0.1,10.4-0.1,10.4c1.1,0.9,2.1,1.9,3.2,2.8
						c-1.1,0.4-2.2,1.2-3.3,2.4c-5.3,6.1,0.9,10.4,0.8,10.4c2.4,1.8,4.8,3.5,7.2,5.3c-0.7,0.5-1.4,1.2-2,2.1
						c-4.8,6.5,1.8,10.3,1.8,10.3c1.1,0.7,2.2,1.3,3.3,2c-0.6,0.6-1.1,1.4-1.6,2.3c-3.5,7.2,3.7,9.8,3.6,9.8c2.6,1,5.2,2.1,7.7,3.1
						c-0.3,0.5-0.7,1-1,1.6c-3.5,7.2,3.7,9.8,3.6,9.8c2.5,1,4.9,2,7.4,3c-0.1,0.3-0.3,0.6-0.4,0.9c-2.8,7.5,4.6,9.5,4.5,9.5
						c3.3,1,6.7,2.1,10,3.1c-1.6,7.2,5.5,8.6,5.5,8.6c12.7,2.8,15.5,7.3,28.3,14.3c4.9,2.7,10.1,6.1,15.6,9.9
						C207.8,226.7,236.1,228.9,247.9,218.4z"/>
					<path d="M246.9,217.4c0.6-0.6,13.4-7.7,16.3-9.8c9.7-7,13.3-6.4,23.5-12.8c0,0,7.1-1.3,5.5-8.6c3.3-1,6.7-2,10-3.1
						c0,0,7.3-2,4.5-9.5c-0.1-0.3-0.3-0.6-0.4-0.9c2.5-1,4.9-2,7.4-3c0,0,7.1-2.6,3.6-9.8c-0.3-0.6-0.6-1.1-1-1.6
						c2.6-1,5.2-2.1,7.7-3.1c0,0,7.1-2.6,3.6-9.8c-0.5-1-1-1.7-1.6-2.3c1.1-0.7,2.2-1.3,3.3-2c0,0,6.5-3.7,1.8-10.3
						c-0.7-0.9-1.3-1.5-2-2.1c2.4-1.8,4.8-3.5,7.2-5.3c0,0,6.2-4.3,0.8-10.4c-1.1-1.2-2.2-2-3.3-2.4c1.1-0.9,2.1-1.9,3.2-2.8
						c0,0,5.8-4.8-0.1-10.4c-4.1-3.8-7.8-2.5-9.7-1.2c1-1,1.9-2,2.9-3c0,0,5.3-5.2-1.1-10.4c-4.5-3.5-8-1.8-9.8-0.4
						c1.2-1.5,2.5-3.1,3.7-4.6c0,0,4.8-5.6-2-10.2c-6.9-4.5-10.9,1.7-10.9,1.7c-2.1,3-4.1,6-6.2,9.1c3-4.5,6-9,9-13.6
						c0,0,4.3-6-3-10c-7.3-3.9-10.7,2.6-10.7,2.6c-3.3,5.9-6.7,11.9-10,17.9c3.7-6.9,7.5-13.8,11.2-20.7c0,0,3.7-6.3-3.9-9.8
						c-7.6-3.3-10.4,3.5-10.4,3.4c-5.1,11.2-10,22.5-15,33.8c5.4-12.4,10.7-24.7,16-37.1c0,0,3.1-6.6-4.8-9.4
						c-5.6-1.9-8.3,1.1-9.4,3c0.1-0.3,0.2-0.7,0.3-1c0,0,2.5-6.9-5.6-9c-4.9-1.2-7.4,0.9-8.6,2.8c0-0.2,0.1-0.3,0.1-0.5
						c0,0,1.8-7-6.4-8.5c-8.3-1.3-9.1,5.9-9.1,5.9c-0.2,1.1-0.3,2.2-0.5,3.3c0.2-1.8,0.5-3.6,0.7-5.4c0,0,1.2-7.2-7.2-7.9
						c-8.4-0.6-8.5,6.6-8.5,6.6c-0.5,8.4-0.9,16.7-1.3,25.1c0.4-9.1,0.7-18.1,1.1-27.2c0,0,0.5-7.2-7.9-7.3c0,0,0,0,0,0c0,0,0,0,0,0
						c-8.4,0.1-7.9,7.3-7.9,7.3c0.3,9.1,0.7,18.1,1.1,27.2c-0.4-8.4-0.9-16.7-1.3-25.1c0,0-0.1-7.2-8.5-6.6
						c-8.4,0.7-7.2,7.9-7.2,7.9c0.2,1.8,0.5,3.6,0.7,5.4c-0.2-1.1-0.3-2.2-0.5-3.3c0,0-0.8-7.2-9.1-5.9c-8.3,1.4-6.4,8.5-6.4,8.5
						c0,0.2,0.1,0.3,0.1,0.5c-1.2-1.9-3.7-4-8.6-2.8c-8.1,2.1-5.6,9-5.6,9c0.1,0.3,0.2,0.7,0.3,1c-1.1-1.9-3.8-4.9-9.4-3
						c-7.9,2.8-4.8,9.4-4.8,9.4c5.3,12.4,10.6,24.8,16,37.1c-5-11.3-10-22.6-15-33.8c0,0-2.8-6.8-10.4-3.4c-7.6,3.4-3.9,9.8-3.9,9.8
						c3.7,6.9,7.4,13.8,11.2,20.7c-3.3-6-6.6-11.9-10-17.9c0,0-3.4-6.5-10.7-2.6c-7.2,4-3,10.1-3,10c3,4.5,6,9,9,13.6
						c-2.1-3-4.1-6-6.2-9.1c0,0-3.9-6.2-10.9-1.7c-6.8,4.6-2,10.3-2,10.2c1.2,1.5,2.5,3.1,3.7,4.6c-1.8-1.4-5.3-3.1-9.8,0.4
						c-6.4,5.2-1.1,10.4-1.1,10.4c1,1,1.9,2,2.9,3c-1.9-1.2-5.6-2.6-9.7,1.2c-5.9,5.7-0.1,10.4-0.1,10.4c1.1,0.9,2.1,1.9,3.2,2.8
						c-1.1,0.4-2.2,1.2-3.3,2.4c-5.3,6.1,0.9,10.4,0.8,10.4c2.4,1.8,4.8,3.5,7.2,5.3c-0.7,0.5-1.4,1.2-2,2.1
						c-4.8,6.5,1.8,10.3,1.8,10.3c1.1,0.7,2.2,1.3,3.3,2c-0.6,0.6-1.1,1.4-1.6,2.3c-3.5,7.2,3.7,9.8,3.6,9.8c2.6,1,5.2,2.1,7.7,3.1
						c-0.3,0.5-0.7,1-1,1.6c-3.5,7.2,3.7,9.8,3.6,9.8c2.5,1,4.9,2,7.4,3c-0.1,0.3-0.3,0.6-0.4,0.9c-2.8,7.5,4.6,9.5,4.5,9.5
						c3.3,1,6.7,2.1,10,3.1c-1.6,7.2,5.5,8.6,5.5,8.6c12.7,2.8,15.5,7.3,28.3,14.3c4.9,2.7,10.1,6.1,15.6,9.9
						C206.8,225.7,235.1,227.9,246.9,217.4z"/>
				</g>
				<g>
					<g class="st1">
						<path d="M245.9,216.4c0.6-0.6,13.4-7.7,16.3-9.8c9.7-7,13.3-6.4,23.5-12.8c0,0,7.1-1.3,5.5-8.6c3.3-1,6.7-2,10-3.1
							c0,0,7.3-2,4.5-9.5c-0.1-0.3-0.3-0.6-0.4-0.9c2.5-1,4.9-2,7.4-3c0,0,7.1-2.6,3.6-9.8c-0.3-0.6-0.6-1.1-1-1.6
							c2.6-1,5.2-2.1,7.7-3.1c0,0,7.1-2.6,3.6-9.8c-0.5-1-1-1.7-1.6-2.3c1.1-0.7,2.2-1.3,3.3-2c0,0,6.5-3.7,1.8-10.3
							c-0.7-0.9-1.3-1.5-2-2.1c2.4-1.8,4.8-3.5,7.2-5.3c0,0,6.2-4.3,0.8-10.4c-1.1-1.2-2.2-2-3.3-2.4c1.1-0.9,2.1-1.9,3.2-2.8
							c0,0,5.8-4.8-0.1-10.4c-4.1-3.8-7.8-2.5-9.7-1.2c1-1,1.9-2,2.9-3c0,0,5.3-5.2-1.1-10.4c-4.5-3.5-8-1.8-9.8-0.4
							c1.2-1.5,2.5-3.1,3.7-4.6c0,0,4.8-5.6-2-10.2c-6.9-4.5-10.9,1.7-10.9,1.7c-2.1,3-4.1,6-6.2,9.1c3-4.5,6-9,9-13.6
							c0,0,4.3-6-3-10c-7.3-3.9-10.7,2.6-10.7,2.6c-3.3,5.9-6.7,11.9-10,17.9c3.7-6.9,7.5-13.8,11.2-20.7c0,0,3.7-6.3-3.9-9.8
							c-7.6-3.3-10.4,3.5-10.4,3.4c-5.1,11.2-10,22.5-15,33.8c5.4-12.4,10.7-24.7,16-37.1c0,0,3.1-6.6-4.8-9.4
							c-5.6-1.9-8.3,1.1-9.4,3c0.1-0.3,0.2-0.7,0.3-1c0,0,2.5-6.9-5.6-9c-4.9-1.2-7.4,0.9-8.6,2.8c0-0.2,0.1-0.3,0.1-0.5
							c0,0,1.8-7-6.4-8.5c-8.3-1.3-9.1,5.9-9.1,5.9c-0.2,1.1-0.3,2.2-0.5,3.3c0.2-1.8,0.5-3.6,0.7-5.4c0,0,1.2-7.2-7.2-7.9
							c-8.4-0.6-8.5,6.6-8.5,6.6c-0.5,8.4-0.9,16.7-1.3,25.1c0.4-9.1,0.7-18.1,1.1-27.2c0,0,0.5-7.2-7.9-7.3c0,0,0,0,0,0
							c0,0,0,0,0,0c-8.4,0.1-7.9,7.3-7.9,7.3c0.3,9.1,0.7,18.1,1.1,27.2c-0.4-8.4-0.9-16.7-1.3-25.1c0,0-0.1-7.2-8.5-6.6
							c-8.4,0.7-7.2,7.9-7.2,7.9c0.2,1.8,0.5,3.6,0.7,5.4c-0.2-1.1-0.3-2.2-0.5-3.3c0,0-0.8-7.2-9.1-5.9c-8.3,1.4-6.4,8.5-6.4,8.5
							c0,0.2,0.1,0.3,0.1,0.5c-1.2-1.9-3.7-4-8.6-2.8c-8.1,2.1-5.6,9-5.6,9c0.1,0.3,0.2,0.7,0.3,1c-1.1-1.9-3.8-4.9-9.4-3
							c-7.9,2.8-4.8,9.4-4.8,9.4c5.3,12.4,10.6,24.8,16,37.1c-5-11.3-10-22.6-15-33.8c0,0-2.8-6.8-10.4-3.4
							c-7.6,3.4-3.9,9.8-3.9,9.8c3.7,6.9,7.4,13.8,11.2,20.7c-3.3-6-6.6-11.9-10-17.9c0,0-3.4-6.5-10.7-2.6c-7.2,4-3,10.1-3,10
							c3,4.5,6,9,9,13.6c-2.1-3-4.1-6-6.2-9.1c0,0-3.9-6.2-10.9-1.7c-6.8,4.6-2,10.3-2,10.2c1.2,1.5,2.5,3.1,3.7,4.6
							c-1.8-1.4-5.3-3.1-9.8,0.4c-6.4,5.2-1.1,10.4-1.1,10.4c1,1,1.9,2,2.9,3c-1.9-1.2-5.6-2.6-9.7,1.2c-5.9,5.7-0.1,10.4-0.1,10.4
							c1.1,0.9,2.1,1.9,3.2,2.8c-1.1,0.4-2.2,1.2-3.3,2.4c-5.3,6.1,0.9,10.4,0.8,10.4c2.4,1.8,4.8,3.5,7.2,5.3
							c-0.7,0.5-1.4,1.2-2,2.1c-4.8,6.5,1.8,10.3,1.8,10.3c1.1,0.7,2.2,1.3,3.3,2c-0.6,0.6-1.1,1.4-1.6,2.3
							c-3.5,7.2,3.7,9.8,3.6,9.8c2.6,1,5.2,2.1,7.7,3.1c-0.3,0.5-0.7,1-1,1.6c-3.5,7.2,3.7,9.8,3.6,9.8c2.5,1,4.9,2,7.4,3
							c-0.1,0.3-0.3,0.6-0.4,0.9c-2.8,7.5,4.6,9.5,4.5,9.5c3.3,1,6.7,2.1,10,3.1c-1.6,7.2,5.5,8.6,5.5,8.6
							c12.7,2.8,15.5,7.3,28.3,14.3c4.9,2.7,10.1,6.1,15.6,9.9C205.8,224.7,234.1,226.9,245.9,216.4z"/>
					</g>
					<radialGradient id="SVGID_1_" cx="215.6691" cy="191.6108" r="112.3398" gradientUnits="userSpaceOnUse">
						<stop  offset="0.1773" style="stop-color:#ACF0E2"/>
						<stop  offset="0.6448" style="stop-color:#00B4C3"/>
						<stop  offset="1" style="stop-color:#4995AC;stop-opacity:0.8"/>
					</radialGradient>
					<path class="st2" d="M244.9,215.4c0.6-0.6,13.4-7.7,16.3-9.8c9.7-7,13.3-6.4,23.5-12.8c0,0,7.1-1.3,5.5-8.6c3.3-1,6.7-2,10-3.1
						c0,0,7.3-2,4.5-9.5c-0.1-0.3-0.3-0.6-0.4-0.9c2.5-1,4.9-2,7.4-3c0,0,7.1-2.6,3.6-9.8c-0.3-0.6-0.6-1.1-1-1.6
						c2.6-1,5.2-2.1,7.7-3.1c0,0,7.1-2.6,3.6-9.8c-0.5-1-1-1.7-1.6-2.3c1.1-0.7,2.2-1.3,3.3-2c0,0,6.5-3.7,1.8-10.3
						c-0.7-0.9-1.3-1.5-2-2.1c2.4-1.8,4.8-3.5,7.2-5.3c0,0,6.2-4.3,0.8-10.4c-1.1-1.2-2.2-2-3.3-2.4c1.1-0.9,2.1-1.9,3.2-2.8
						c0,0,5.8-4.8-0.1-10.4c-4.1-3.8-7.8-2.5-9.7-1.2c1-1,1.9-2,2.9-3c0,0,5.3-5.2-1.1-10.4c-4.5-3.5-8-1.8-9.8-0.4
						c1.2-1.5,2.5-3.1,3.7-4.6c0,0,4.8-5.6-2-10.2c-6.9-4.5-10.9,1.7-10.9,1.7c-2.1,3-4.1,6-6.2,9.1c3-4.5,6-9,9-13.6
						c0,0,4.3-6-3-10c-7.3-3.9-10.7,2.6-10.7,2.6c-3.3,5.9-6.7,11.9-10,17.9c3.7-6.9,7.5-13.8,11.2-20.7c0,0,3.7-6.3-3.9-9.8
						c-7.6-3.3-10.4,3.5-10.4,3.4c-5.1,11.2-10,22.5-15,33.8c5.4-12.4,10.7-24.7,16-37.1c0,0,3.1-6.6-4.8-9.4
						c-5.6-1.9-8.3,1.1-9.4,3c0.1-0.3,0.2-0.7,0.3-1c0,0,2.5-6.9-5.6-9c-4.9-1.2-7.4,0.9-8.6,2.8c0-0.2,0.1-0.3,0.1-0.5
						c0,0,1.8-7-6.4-8.5c-8.3-1.3-9.1,5.9-9.1,5.9c-0.2,1.1-0.3,2.2-0.5,3.3c0.2-1.8,0.5-3.6,0.7-5.4c0,0,1.2-7.2-7.2-7.9
						c-8.4-0.6-8.5,6.6-8.5,6.6c-0.5,8.4-0.9,16.7-1.3,25.1c0.4-9.1,0.7-18.1,1.1-27.2c0,0,0.5-7.2-7.9-7.3c0,0,0,0,0,0c0,0,0,0,0,0
						c-8.4,0.1-7.9,7.3-7.9,7.3c0.3,9.1,0.7,18.1,1.1,27.2c-0.4-8.4-0.9-16.7-1.3-25.1c0,0-0.1-7.2-8.5-6.6
						c-8.4,0.7-7.2,7.9-7.2,7.9c0.2,1.8,0.5,3.6,0.7,5.4c-0.2-1.1-0.3-2.2-0.5-3.3c0,0-0.8-7.2-9.1-5.9c-8.3,1.4-6.4,8.5-6.4,8.5
						c0,0.2,0.1,0.3,0.1,0.5c-1.2-1.9-3.7-4-8.6-2.8c-8.1,2.1-5.6,9-5.6,9c0.1,0.3,0.2,0.7,0.3,1c-1.1-1.9-3.8-4.9-9.4-3
						c-7.9,2.8-4.8,9.4-4.8,9.4c5.3,12.4,10.6,24.8,16,37.1c-5-11.3-10-22.6-15-33.8c0,0-2.8-6.8-10.4-3.4c-7.6,3.4-3.9,9.8-3.9,9.8
						c3.7,6.9,7.4,13.8,11.2,20.7c-3.3-6-6.6-11.9-10-17.9c0,0-3.4-6.5-10.7-2.6c-7.2,4-3,10.1-3,10c3,4.5,6,9,9,13.6
						c-2.1-3-4.1-6-6.2-9.1c0,0-3.9-6.2-10.9-1.7c-6.8,4.6-2,10.3-2,10.2c1.2,1.5,2.5,3.1,3.7,4.6c-1.8-1.4-5.3-3.1-9.8,0.4
						c-6.4,5.2-1.1,10.4-1.1,10.4c1,1,1.9,2,2.9,3c-1.9-1.2-5.6-2.6-9.7,1.2c-5.9,5.7-0.1,10.4-0.1,10.4c1.1,0.9,2.1,1.9,3.2,2.8
						c-1.1,0.4-2.2,1.2-3.3,2.4c-5.3,6.1,0.9,10.4,0.8,10.4c2.4,1.8,4.8,3.5,7.2,5.3c-0.7,0.5-1.4,1.2-2,2.1
						c-4.8,6.5,1.8,10.3,1.8,10.3c1.1,0.7,2.2,1.3,3.3,2c-0.6,0.6-1.1,1.4-1.6,2.3c-3.5,7.2,3.7,9.8,3.6,9.8c2.6,1,5.2,2.1,7.7,3.1
						c-0.3,0.5-0.7,1-1,1.6c-3.5,7.2,3.7,9.8,3.6,9.8c2.5,1,4.9,2,7.4,3c-0.1,0.3-0.3,0.6-0.4,0.9c-2.8,7.5,4.6,9.5,4.5,9.5
						c3.3,1,6.7,2.1,10,3.1c-1.6,7.2,5.5,8.6,5.5,8.6c12.7,2.8,15.5,7.3,28.3,14.3c4.9,2.7,10.1,6.1,15.6,9.9
						C204.8,223.7,233.1,225.9,244.9,215.4z"/>
				</g>
			</g>
		</g>
		<g>
			<g class="st0">
				<path d="M247.9,218.4c0.6-0.6,13.4-7.7,16.3-9.8c9.7-7,13.3-6.4,23.5-12.8c0,0,7.1-1.3,5.5-8.6c3.3-1,6.7-2,10-3.1
					c0,0,7.3-2,4.5-9.5c-0.1-0.3-0.3-0.6-0.4-0.9c2.5-1,4.9-2,7.4-3c0,0,7.1-2.6,3.6-9.8c-0.3-0.6-0.6-1.1-1-1.6
					c2.6-1,5.2-2.1,7.7-3.1c0,0,7.1-2.6,3.6-9.8c-0.5-1-1-1.7-1.6-2.3c1.1-0.7,2.2-1.3,3.3-2c0,0,6.5-3.7,1.8-10.3
					c-0.7-0.9-1.3-1.5-2-2.1c2.4-1.8,4.8-3.5,7.2-5.3c0,0,6.2-4.3,0.8-10.4c-1.1-1.2-2.2-2-3.3-2.4c1.1-0.9,2.1-1.9,3.2-2.8
					c0,0,5.8-4.8-0.1-10.4c-4.1-3.8-7.8-2.5-9.7-1.2c1-1,1.9-2,2.9-3c0,0,5.3-5.2-1.1-10.4c-4.5-3.5-8-1.8-9.8-0.4
					c1.2-1.5,2.5-3.1,3.7-4.6c0,0,4.8-5.6-2-10.2c-6.9-4.5-10.9,1.7-10.9,1.7c-2.1,3-4.1,6-6.2,9.1c3-4.5,6-9,9-13.6c0,0,4.3-6-3-10
					c-7.3-3.9-10.7,2.6-10.7,2.6c-3.3,5.9-6.7,11.9-10,17.9c3.7-6.9,7.5-13.8,11.2-20.7c0,0,3.7-6.3-3.9-9.8
					c-7.6-3.3-10.4,3.5-10.4,3.4c-5.1,11.2-10,22.5-15,33.8c5.4-12.4,10.7-24.7,16-37.1c0,0,3.1-6.6-4.8-9.4c-5.6-1.9-8.3,1.1-9.4,3
					c0.1-0.3,0.2-0.7,0.3-1c0,0,2.5-6.9-5.6-9c-4.9-1.2-7.4,0.9-8.6,2.8c0-0.2,0.1-0.3,0.1-0.5c0,0,1.8-7-6.4-8.5
					c-8.3-1.3-9.1,5.9-9.1,5.9c-0.2,1.1-0.3,2.2-0.5,3.3c0.2-1.8,0.5-3.6,0.7-5.4c0,0,1.2-7.2-7.2-7.9c-8.4-0.6-8.5,6.6-8.5,6.6
					c-0.5,8.4-0.9,16.7-1.3,25.1c0.4-9.1,0.7-18.1,1.1-27.2c0,0,0.5-7.2-7.9-7.3c0,0,0,0,0,0c0,0,0,0,0,0c-8.4,0.1-7.9,7.3-7.9,7.3
					c0.3,9.1,0.7,18.1,1.1,27.2c-0.4-8.4-0.9-16.7-1.3-25.1c0,0-0.1-7.2-8.5-6.6c-8.4,0.7-7.2,7.9-7.2,7.9c0.2,1.8,0.5,3.6,0.7,5.4
					c-0.2-1.1-0.3-2.2-0.5-3.3c0,0-0.8-7.2-9.1-5.9c-8.3,1.4-6.4,8.5-6.4,8.5c0,0.2,0.1,0.3,0.1,0.5c-1.2-1.9-3.7-4-8.6-2.8
					c-8.1,2.1-5.6,9-5.6,9c0.1,0.3,0.2,0.7,0.3,1c-1.1-1.9-3.8-4.9-9.4-3c-7.9,2.8-4.8,9.4-4.8,9.4c5.3,12.4,10.6,24.8,16,37.1
					c-5-11.3-10-22.6-15-33.8c0,0-2.8-6.8-10.4-3.4c-7.6,3.4-3.9,9.8-3.9,9.8c3.7,6.9,7.4,13.8,11.2,20.7c-3.3-6-6.6-11.9-10-17.9
					c0,0-3.4-6.5-10.7-2.6c-7.2,4-3,10.1-3,10c3,4.5,6,9,9,13.6c-2.1-3-4.1-6-6.2-9.1c0,0-3.9-6.2-10.9-1.7c-6.8,4.6-2,10.3-2,10.2
					c1.2,1.5,2.5,3.1,3.7,4.6c-1.8-1.4-5.3-3.1-9.8,0.4c-6.4,5.2-1.1,10.4-1.1,10.4c1,1,1.9,2,2.9,3c-1.9-1.2-5.6-2.6-9.7,1.2
					c-5.9,5.7-0.1,10.4-0.1,10.4c1.1,0.9,2.1,1.9,3.2,2.8c-1.1,0.4-2.2,1.2-3.3,2.4c-5.3,6.1,0.9,10.4,0.8,10.4
					c2.4,1.8,4.8,3.5,7.2,5.3c-0.7,0.5-1.4,1.2-2,2.1c-4.8,6.5,1.8,10.3,1.8,10.3c1.1,0.7,2.2,1.3,3.3,2c-0.6,0.6-1.1,1.4-1.6,2.3
					c-3.5,7.2,3.7,9.8,3.6,9.8c2.6,1,5.2,2.1,7.7,3.1c-0.3,0.5-0.7,1-1,1.6c-3.5,7.2,3.7,9.8,3.6,9.8c2.5,1,4.9,2,7.4,3
					c-0.1,0.3-0.3,0.6-0.4,0.9c-2.8,7.5,4.6,9.5,4.5,9.5c3.3,1,6.7,2.1,10,3.1c-1.6,7.2,5.5,8.6,5.5,8.6
					c12.7,2.8,15.5,7.3,28.3,14.3c4.9,2.7,10.1,6.1,15.6,9.9C207.8,226.7,236.1,228.9,247.9,218.4z"/>
				<path d="M246.9,217.4c0.6-0.6,13.4-7.7,16.3-9.8c9.7-7,13.3-6.4,23.5-12.8c0,0,7.1-1.3,5.5-8.6c3.3-1,6.7-2,10-3.1
					c0,0,7.3-2,4.5-9.5c-0.1-0.3-0.3-0.6-0.4-0.9c2.5-1,4.9-2,7.4-3c0,0,7.1-2.6,3.6-9.8c-0.3-0.6-0.6-1.1-1-1.6
					c2.6-1,5.2-2.1,7.7-3.1c0,0,7.1-2.6,3.6-9.8c-0.5-1-1-1.7-1.6-2.3c1.1-0.7,2.2-1.3,3.3-2c0,0,6.5-3.7,1.8-10.3
					c-0.7-0.9-1.3-1.5-2-2.1c2.4-1.8,4.8-3.5,7.2-5.3c0,0,6.2-4.3,0.8-10.4c-1.1-1.2-2.2-2-3.3-2.4c1.1-0.9,2.1-1.9,3.2-2.8
					c0,0,5.8-4.8-0.1-10.4c-4.1-3.8-7.8-2.5-9.7-1.2c1-1,1.9-2,2.9-3c0,0,5.3-5.2-1.1-10.4c-4.5-3.5-8-1.8-9.8-0.4
					c1.2-1.5,2.5-3.1,3.7-4.6c0,0,4.8-5.6-2-10.2c-6.9-4.5-10.9,1.7-10.9,1.7c-2.1,3-4.1,6-6.2,9.1c3-4.5,6-9,9-13.6c0,0,4.3-6-3-10
					c-7.3-3.9-10.7,2.6-10.7,2.6c-3.3,5.9-6.7,11.9-10,17.9c3.7-6.9,7.5-13.8,11.2-20.7c0,0,3.7-6.3-3.9-9.8
					c-7.6-3.3-10.4,3.5-10.4,3.4c-5.1,11.2-10,22.5-15,33.8c5.4-12.4,10.7-24.7,16-37.1c0,0,3.1-6.6-4.8-9.4c-5.6-1.9-8.3,1.1-9.4,3
					c0.1-0.3,0.2-0.7,0.3-1c0,0,2.5-6.9-5.6-9c-4.9-1.2-7.4,0.9-8.6,2.8c0-0.2,0.1-0.3,0.1-0.5c0,0,1.8-7-6.4-8.5
					c-8.3-1.3-9.1,5.9-9.1,5.9c-0.2,1.1-0.3,2.2-0.5,3.3c0.2-1.8,0.5-3.6,0.7-5.4c0,0,1.2-7.2-7.2-7.9c-8.4-0.6-8.5,6.6-8.5,6.6
					c-0.5,8.4-0.9,16.7-1.3,25.1c0.4-9.1,0.7-18.1,1.1-27.2c0,0,0.5-7.2-7.9-7.3c0,0,0,0,0,0c0,0,0,0,0,0c-8.4,0.1-7.9,7.3-7.9,7.3
					c0.3,9.1,0.7,18.1,1.1,27.2c-0.4-8.4-0.9-16.7-1.3-25.1c0,0-0.1-7.2-8.5-6.6c-8.4,0.7-7.2,7.9-7.2,7.9c0.2,1.8,0.5,3.6,0.7,5.4
					c-0.2-1.1-0.3-2.2-0.5-3.3c0,0-0.8-7.2-9.1-5.9c-8.3,1.4-6.4,8.5-6.4,8.5c0,0.2,0.1,0.3,0.1,0.5c-1.2-1.9-3.7-4-8.6-2.8
					c-8.1,2.1-5.6,9-5.6,9c0.1,0.3,0.2,0.7,0.3,1c-1.1-1.9-3.8-4.9-9.4-3c-7.9,2.8-4.8,9.4-4.8,9.4c5.3,12.4,10.6,24.8,16,37.1
					c-5-11.3-10-22.6-15-33.8c0,0-2.8-6.8-10.4-3.4c-7.6,3.4-3.9,9.8-3.9,9.8c3.7,6.9,7.4,13.8,11.2,20.7c-3.3-6-6.6-11.9-10-17.9
					c0,0-3.4-6.5-10.7-2.6c-7.2,4-3,10.1-3,10c3,4.5,6,9,9,13.6c-2.1-3-4.1-6-6.2-9.1c0,0-3.9-6.2-10.9-1.7c-6.8,4.6-2,10.3-2,10.2
					c1.2,1.5,2.5,3.1,3.7,4.6c-1.8-1.4-5.3-3.1-9.8,0.4c-6.4,5.2-1.1,10.4-1.1,10.4c1,1,1.9,2,2.9,3c-1.9-1.2-5.6-2.6-9.7,1.2
					c-5.9,5.7-0.1,10.4-0.1,10.4c1.1,0.9,2.1,1.9,3.2,2.8c-1.1,0.4-2.2,1.2-3.3,2.4c-5.3,6.1,0.9,10.4,0.8,10.4
					c2.4,1.8,4.8,3.5,7.2,5.3c-0.7,0.5-1.4,1.2-2,2.1c-4.8,6.5,1.8,10.3,1.8,10.3c1.1,0.7,2.2,1.3,3.3,2c-0.6,0.6-1.1,1.4-1.6,2.3
					c-3.5,7.2,3.7,9.8,3.6,9.8c2.6,1,5.2,2.1,7.7,3.1c-0.3,0.5-0.7,1-1,1.6c-3.5,7.2,3.7,9.8,3.6,9.8c2.5,1,4.9,2,7.4,3
					c-0.1,0.3-0.3,0.6-0.4,0.9c-2.8,7.5,4.6,9.5,4.5,9.5c3.3,1,6.7,2.1,10,3.1c-1.6,7.2,5.5,8.6,5.5,8.6
					c12.7,2.8,15.5,7.3,28.3,14.3c4.9,2.7,10.1,6.1,15.6,9.9C206.8,225.7,235.1,227.9,246.9,217.4z"/>
			</g>
			<g>
				<g class="st1">
					<path d="M245.9,216.4c0.6-0.6,13.4-7.7,16.3-9.8c9.7-7,13.3-6.4,23.5-12.8c0,0,7.1-1.3,5.5-8.6c3.3-1,6.7-2,10-3.1
						c0,0,7.3-2,4.5-9.5c-0.1-0.3-0.3-0.6-0.4-0.9c2.5-1,4.9-2,7.4-3c0,0,7.1-2.6,3.6-9.8c-0.3-0.6-0.6-1.1-1-1.6
						c2.6-1,5.2-2.1,7.7-3.1c0,0,7.1-2.6,3.6-9.8c-0.5-1-1-1.7-1.6-2.3c1.1-0.7,2.2-1.3,3.3-2c0,0,6.5-3.7,1.8-10.3
						c-0.7-0.9-1.3-1.5-2-2.1c2.4-1.8,4.8-3.5,7.2-5.3c0,0,6.2-4.3,0.8-10.4c-1.1-1.2-2.2-2-3.3-2.4c1.1-0.9,2.1-1.9,3.2-2.8
						c0,0,5.8-4.8-0.1-10.4c-4.1-3.8-7.8-2.5-9.7-1.2c1-1,1.9-2,2.9-3c0,0,5.3-5.2-1.1-10.4c-4.5-3.5-8-1.8-9.8-0.4
						c1.2-1.5,2.5-3.1,3.7-4.6c0,0,4.8-5.6-2-10.2c-6.9-4.5-10.9,1.7-10.9,1.7c-2.1,3-4.1,6-6.2,9.1c3-4.5,6-9,9-13.6
						c0,0,4.3-6-3-10c-7.3-3.9-10.7,2.6-10.7,2.6c-3.3,5.9-6.7,11.9-10,17.9c3.7-6.9,7.5-13.8,11.2-20.7c0,0,3.7-6.3-3.9-9.8
						c-7.6-3.3-10.4,3.5-10.4,3.4c-5.1,11.2-10,22.5-15,33.8c5.4-12.4,10.7-24.7,16-37.1c0,0,3.1-6.6-4.8-9.4
						c-5.6-1.9-8.3,1.1-9.4,3c0.1-0.3,0.2-0.7,0.3-1c0,0,2.5-6.9-5.6-9c-4.9-1.2-7.4,0.9-8.6,2.8c0-0.2,0.1-0.3,0.1-0.5
						c0,0,1.8-7-6.4-8.5c-8.3-1.3-9.1,5.9-9.1,5.9c-0.2,1.1-0.3,2.2-0.5,3.3c0.2-1.8,0.5-3.6,0.7-5.4c0,0,1.2-7.2-7.2-7.9
						c-8.4-0.6-8.5,6.6-8.5,6.6c-0.5,8.4-0.9,16.7-1.3,25.1c0.4-9.1,0.7-18.1,1.1-27.2c0,0,0.5-7.2-7.9-7.3c0,0,0,0,0,0c0,0,0,0,0,0
						c-8.4,0.1-7.9,7.3-7.9,7.3c0.3,9.1,0.7,18.1,1.1,27.2c-0.4-8.4-0.9-16.7-1.3-25.1c0,0-0.1-7.2-8.5-6.6
						c-8.4,0.7-7.2,7.9-7.2,7.9c0.2,1.8,0.5,3.6,0.7,5.4c-0.2-1.1-0.3-2.2-0.5-3.3c0,0-0.8-7.2-9.1-5.9c-8.3,1.4-6.4,8.5-6.4,8.5
						c0,0.2,0.1,0.3,0.1,0.5c-1.2-1.9-3.7-4-8.6-2.8c-8.1,2.1-5.6,9-5.6,9c0.1,0.3,0.2,0.7,0.3,1c-1.1-1.9-3.8-4.9-9.4-3
						c-7.9,2.8-4.8,9.4-4.8,9.4c5.3,12.4,10.6,24.8,16,37.1c-5-11.3-10-22.6-15-33.8c0,0-2.8-6.8-10.4-3.4c-7.6,3.4-3.9,9.8-3.9,9.8
						c3.7,6.9,7.4,13.8,11.2,20.7c-3.3-6-6.6-11.9-10-17.9c0,0-3.4-6.5-10.7-2.6c-7.2,4-3,10.1-3,10c3,4.5,6,9,9,13.6
						c-2.1-3-4.1-6-6.2-9.1c0,0-3.9-6.2-10.9-1.7c-6.8,4.6-2,10.3-2,10.2c1.2,1.5,2.5,3.1,3.7,4.6c-1.8-1.4-5.3-3.1-9.8,0.4
						c-6.4,5.2-1.1,10.4-1.1,10.4c1,1,1.9,2,2.9,3c-1.9-1.2-5.6-2.6-9.7,1.2c-5.9,5.7-0.1,10.4-0.1,10.4c1.1,0.9,2.1,1.9,3.2,2.8
						c-1.1,0.4-2.2,1.2-3.3,2.4c-5.3,6.1,0.9,10.4,0.8,10.4c2.4,1.8,4.8,3.5,7.2,5.3c-0.7,0.5-1.4,1.2-2,2.1
						c-4.8,6.5,1.8,10.3,1.8,10.3c1.1,0.7,2.2,1.3,3.3,2c-0.6,0.6-1.1,1.4-1.6,2.3c-3.5,7.2,3.7,9.8,3.6,9.8c2.6,1,5.2,2.1,7.7,3.1
						c-0.3,0.5-0.7,1-1,1.6c-3.5,7.2,3.7,9.8,3.6,9.8c2.5,1,4.9,2,7.4,3c-0.1,0.3-0.3,0.6-0.4,0.9c-2.8,7.5,4.6,9.5,4.5,9.5
						c3.3,1,6.7,2.1,10,3.1c-1.6,7.2,5.5,8.6,5.5,8.6c12.7,2.8,15.5,7.3,28.3,14.3c4.9,2.7,10.1,6.1,15.6,9.9
						C205.8,224.7,234.1,226.9,245.9,216.4z"/>
				</g>
				<radialGradient id="SVGID_2_" cx="215.6691" cy="191.6108" r="112.3398" gradientUnits="userSpaceOnUse">
					<stop  offset="0.1773" style="stop-color:#ACF0E2"/>
					<stop  offset="0.6448" style="stop-color:#00B4C3"/>
					<stop  offset="1" style="stop-color:#4995AC;stop-opacity:0.8"/>
				</radialGradient>
				<path class="st3" d="M244.9,215.4c0.6-0.6,13.4-7.7,16.3-9.8c9.7-7,13.3-6.4,23.5-12.8c0,0,7.1-1.3,5.5-8.6c3.3-1,6.7-2,10-3.1
					c0,0,7.3-2,4.5-9.5c-0.1-0.3-0.3-0.6-0.4-0.9c2.5-1,4.9-2,7.4-3c0,0,7.1-2.6,3.6-9.8c-0.3-0.6-0.6-1.1-1-1.6
					c2.6-1,5.2-2.1,7.7-3.1c0,0,7.1-2.6,3.6-9.8c-0.5-1-1-1.7-1.6-2.3c1.1-0.7,2.2-1.3,3.3-2c0,0,6.5-3.7,1.8-10.3
					c-0.7-0.9-1.3-1.5-2-2.1c2.4-1.8,4.8-3.5,7.2-5.3c0,0,6.2-4.3,0.8-10.4c-1.1-1.2-2.2-2-3.3-2.4c1.1-0.9,2.1-1.9,3.2-2.8
					c0,0,5.8-4.8-0.1-10.4c-4.1-3.8-7.8-2.5-9.7-1.2c1-1,1.9-2,2.9-3c0,0,5.3-5.2-1.1-10.4c-4.5-3.5-8-1.8-9.8-0.4
					c1.2-1.5,2.5-3.1,3.7-4.6c0,0,4.8-5.6-2-10.2c-6.9-4.5-10.9,1.7-10.9,1.7c-2.1,3-4.1,6-6.2,9.1c3-4.5,6-9,9-13.6c0,0,4.3-6-3-10
					c-7.3-3.9-10.7,2.6-10.7,2.6c-3.3,5.9-6.7,11.9-10,17.9c3.7-6.9,7.5-13.8,11.2-20.7c0,0,3.7-6.3-3.9-9.8
					c-7.6-3.3-10.4,3.5-10.4,3.4c-5.1,11.2-10,22.5-15,33.8c5.4-12.4,10.7-24.7,16-37.1c0,0,3.1-6.6-4.8-9.4c-5.6-1.9-8.3,1.1-9.4,3
					c0.1-0.3,0.2-0.7,0.3-1c0,0,2.5-6.9-5.6-9c-4.9-1.2-7.4,0.9-8.6,2.8c0-0.2,0.1-0.3,0.1-0.5c0,0,1.8-7-6.4-8.5
					c-8.3-1.3-9.1,5.9-9.1,5.9c-0.2,1.1-0.3,2.2-0.5,3.3c0.2-1.8,0.5-3.6,0.7-5.4c0,0,1.2-7.2-7.2-7.9c-8.4-0.6-8.5,6.6-8.5,6.6
					c-0.5,8.4-0.9,16.7-1.3,25.1c0.4-9.1,0.7-18.1,1.1-27.2c0,0,0.5-7.2-7.9-7.3c0,0,0,0,0,0c0,0,0,0,0,0c-8.4,0.1-7.9,7.3-7.9,7.3
					c0.3,9.1,0.7,18.1,1.1,27.2c-0.4-8.4-0.9-16.7-1.3-25.1c0,0-0.1-7.2-8.5-6.6c-8.4,0.7-7.2,7.9-7.2,7.9c0.2,1.8,0.5,3.6,0.7,5.4
					c-0.2-1.1-0.3-2.2-0.5-3.3c0,0-0.8-7.2-9.1-5.9c-8.3,1.4-6.4,8.5-6.4,8.5c0,0.2,0.1,0.3,0.1,0.5c-1.2-1.9-3.7-4-8.6-2.8
					c-8.1,2.1-5.6,9-5.6,9c0.1,0.3,0.2,0.7,0.3,1c-1.1-1.9-3.8-4.9-9.4-3c-7.9,2.8-4.8,9.4-4.8,9.4c5.3,12.4,10.6,24.8,16,37.1
					c-5-11.3-10-22.6-15-33.8c0,0-2.8-6.8-10.4-3.4c-7.6,3.4-3.9,9.8-3.9,9.8c3.7,6.9,7.4,13.8,11.2,20.7c-3.3-6-6.6-11.9-10-17.9
					c0,0-3.4-6.5-10.7-2.6c-7.2,4-3,10.1-3,10c3,4.5,6,9,9,13.6c-2.1-3-4.1-6-6.2-9.1c0,0-3.9-6.2-10.9-1.7c-6.8,4.6-2,10.3-2,10.2
					c1.2,1.5,2.5,3.1,3.7,4.6c-1.8-1.4-5.3-3.1-9.8,0.4c-6.4,5.2-1.1,10.4-1.1,10.4c1,1,1.9,2,2.9,3c-1.9-1.2-5.6-2.6-9.7,1.2
					c-5.9,5.7-0.1,10.4-0.1,10.4c1.1,0.9,2.1,1.9,3.2,2.8c-1.1,0.4-2.2,1.2-3.3,2.4c-5.3,6.1,0.9,10.4,0.8,10.4
					c2.4,1.8,4.8,3.5,7.2,5.3c-0.7,0.5-1.4,1.2-2,2.1c-4.8,6.5,1.8,10.3,1.8,10.3c1.1,0.7,2.2,1.3,3.3,2c-0.6,0.6-1.1,1.4-1.6,2.3
					c-3.5,7.2,3.7,9.8,3.6,9.8c2.6,1,5.2,2.1,7.7,3.1c-0.3,0.5-0.7,1-1,1.6c-3.5,7.2,3.7,9.8,3.6,9.8c2.5,1,4.9,2,7.4,3
					c-0.1,0.3-0.3,0.6-0.4,0.9c-2.8,7.5,4.6,9.5,4.5,9.5c3.3,1,6.7,2.1,10,3.1c-1.6,7.2,5.5,8.6,5.5,8.6
					c12.7,2.8,15.5,7.3,28.3,14.3c4.9,2.7,10.1,6.1,15.6,9.9C204.8,223.7,233.1,225.9,244.9,215.4z"/>
			</g>
		</g>
		<g>
			<g class="st1">
				<path d="M245.9,216.4c0.6-0.6,13.4-7.7,16.3-9.8c9.7-7,13.3-6.4,23.5-12.8c0,0,7.1-1.3,5.5-8.6c3.3-1,6.7-2,10-3.1
					c0,0,7.3-2,4.5-9.5c-0.1-0.3-0.3-0.6-0.4-0.9c2.5-1,4.9-2,7.4-3c0,0,7.1-2.6,3.6-9.8c-0.3-0.6-0.6-1.1-1-1.6
					c2.6-1,5.2-2.1,7.7-3.1c0,0,7.1-2.6,3.6-9.8c-0.5-1-1-1.7-1.6-2.3c1.1-0.7,2.2-1.3,3.3-2c0,0,6.5-3.7,1.8-10.3
					c-0.7-0.9-1.3-1.5-2-2.1c2.4-1.8,4.8-3.5,7.2-5.3c0,0,6.2-4.3,0.8-10.4c-1.1-1.2-2.2-2-3.3-2.4c1.1-0.9,2.1-1.9,3.2-2.8
					c0,0,5.8-4.8-0.1-10.4c-4.1-3.8-7.8-2.5-9.7-1.2c1-1,1.9-2,2.9-3c0,0,5.3-5.2-1.1-10.4c-4.5-3.5-8-1.8-9.8-0.4
					c1.2-1.5,2.5-3.1,3.7-4.6c0,0,4.8-5.6-2-10.2c-6.9-4.5-10.9,1.7-10.9,1.7c-2.1,3-4.1,6-6.2,9.1c3-4.5,6-9,9-13.6c0,0,4.3-6-3-10
					c-7.3-3.9-10.7,2.6-10.7,2.6c-3.3,5.9-6.7,11.9-10,17.9c3.7-6.9,7.5-13.8,11.2-20.7c0,0,3.7-6.3-3.9-9.8
					c-7.6-3.3-10.4,3.5-10.4,3.4c-5.1,11.2-10,22.5-15,33.8c5.4-12.4,10.7-24.7,16-37.1c0,0,3.1-6.6-4.8-9.4c-5.6-1.9-8.3,1.1-9.4,3
					c0.1-0.3,0.2-0.7,0.3-1c0,0,2.5-6.9-5.6-9c-4.9-1.2-7.4,0.9-8.6,2.8c0-0.2,0.1-0.3,0.1-0.5c0,0,1.8-7-6.4-8.5
					c-8.3-1.3-9.1,5.9-9.1,5.9c-0.2,1.1-0.3,2.2-0.5,3.3c0.2-1.8,0.5-3.6,0.7-5.4c0,0,1.2-7.2-7.2-7.9c-8.4-0.6-8.5,6.6-8.5,6.6
					c-0.5,8.4-0.9,16.7-1.3,25.1c0.4-9.1,0.7-18.1,1.1-27.2c0,0,0.5-7.2-7.9-7.3c0,0,0,0,0,0c0,0,0,0,0,0c-8.4,0.1-7.9,7.3-7.9,7.3
					c0.3,9.1,0.7,18.1,1.1,27.2c-0.4-8.4-0.9-16.7-1.3-25.1c0,0-0.1-7.2-8.5-6.6c-8.4,0.7-7.2,7.9-7.2,7.9c0.2,1.8,0.5,3.6,0.7,5.4
					c-0.2-1.1-0.3-2.2-0.5-3.3c0,0-0.8-7.2-9.1-5.9c-8.3,1.4-6.4,8.5-6.4,8.5c0,0.2,0.1,0.3,0.1,0.5c-1.2-1.9-3.7-4-8.6-2.8
					c-8.1,2.1-5.6,9-5.6,9c0.1,0.3,0.2,0.7,0.3,1c-1.1-1.9-3.8-4.9-9.4-3c-7.9,2.8-4.8,9.4-4.8,9.4c5.3,12.4,10.6,24.8,16,37.1
					c-5-11.3-10-22.6-15-33.8c0,0-2.8-6.8-10.4-3.4c-7.6,3.4-3.9,9.8-3.9,9.8c3.7,6.9,7.4,13.8,11.2,20.7c-3.3-6-6.6-11.9-10-17.9
					c0,0-3.4-6.5-10.7-2.6c-7.2,4-3,10.1-3,10c3,4.5,6,9,9,13.6c-2.1-3-4.1-6-6.2-9.1c0,0-3.9-6.2-10.9-1.7c-6.8,4.6-2,10.3-2,10.2
					c1.2,1.5,2.5,3.1,3.7,4.6c-1.8-1.4-5.3-3.1-9.8,0.4c-6.4,5.2-1.1,10.4-1.1,10.4c1,1,1.9,2,2.9,3c-1.9-1.2-5.6-2.6-9.7,1.2
					c-5.9,5.7-0.1,10.4-0.1,10.4c1.1,0.9,2.1,1.9,3.2,2.8c-1.1,0.4-2.2,1.2-3.3,2.4c-5.3,6.1,0.9,10.4,0.8,10.4
					c2.4,1.8,4.8,3.5,7.2,5.3c-0.7,0.5-1.4,1.2-2,2.1c-4.8,6.5,1.8,10.3,1.8,10.3c1.1,0.7,2.2,1.3,3.3,2c-0.6,0.6-1.1,1.4-1.6,2.3
					c-3.5,7.2,3.7,9.8,3.6,9.8c2.6,1,5.2,2.1,7.7,3.1c-0.3,0.5-0.7,1-1,1.6c-3.5,7.2,3.7,9.8,3.6,9.8c2.5,1,4.9,2,7.4,3
					c-0.1,0.3-0.3,0.6-0.4,0.9c-2.8,7.5,4.6,9.5,4.5,9.5c3.3,1,6.7,2.1,10,3.1c-1.6,7.2,5.5,8.6,5.5,8.6
					c12.7,2.8,15.5,7.3,28.3,14.3c4.9,2.7,10.1,6.1,15.6,9.9C205.8,224.7,234.1,226.9,245.9,216.4z"/>
			</g>
			<radialGradient id="SVGID_3_" cx="215.6691" cy="191.6108" r="112.3398" gradientUnits="userSpaceOnUse">
				<stop  offset="0.1773" style="stop-color:#ACF0E2"/>
				<stop  offset="0.6448" style="stop-color:#00B4C3"/>
				<stop  offset="1" style="stop-color:#4995AC;stop-opacity:0.8"/>
			</radialGradient>
			<path class="st4" d="M244.9,215.4c0.6-0.6,13.4-7.7,16.3-9.8c9.7-7,13.3-6.4,23.5-12.8c0,0,7.1-1.3,5.5-8.6c3.3-1,6.7-2,10-3.1
				c0,0,7.3-2,4.5-9.5c-0.1-0.3-0.3-0.6-0.4-0.9c2.5-1,4.9-2,7.4-3c0,0,7.1-2.6,3.6-9.8c-0.3-0.6-0.6-1.1-1-1.6
				c2.6-1,5.2-2.1,7.7-3.1c0,0,7.1-2.6,3.6-9.8c-0.5-1-1-1.7-1.6-2.3c1.1-0.7,2.2-1.3,3.3-2c0,0,6.5-3.7,1.8-10.3
				c-0.7-0.9-1.3-1.5-2-2.1c2.4-1.8,4.8-3.5,7.2-5.3c0,0,6.2-4.3,0.8-10.4c-1.1-1.2-2.2-2-3.3-2.4c1.1-0.9,2.1-1.9,3.2-2.8
				c0,0,5.8-4.8-0.1-10.4c-4.1-3.8-7.8-2.5-9.7-1.2c1-1,1.9-2,2.9-3c0,0,5.3-5.2-1.1-10.4c-4.5-3.5-8-1.8-9.8-0.4
				c1.2-1.5,2.5-3.1,3.7-4.6c0,0,4.8-5.6-2-10.2c-6.9-4.5-10.9,1.7-10.9,1.7c-2.1,3-4.1,6-6.2,9.1c3-4.5,6-9,9-13.6c0,0,4.3-6-3-10
				c-7.3-3.9-10.7,2.6-10.7,2.6c-3.3,5.9-6.7,11.9-10,17.9c3.7-6.9,7.5-13.8,11.2-20.7c0,0,3.7-6.3-3.9-9.8
				c-7.6-3.3-10.4,3.5-10.4,3.4c-5.1,11.2-10,22.5-15,33.8c5.4-12.4,10.7-24.7,16-37.1c0,0,3.1-6.6-4.8-9.4c-5.6-1.9-8.3,1.1-9.4,3
				c0.1-0.3,0.2-0.7,0.3-1c0,0,2.5-6.9-5.6-9c-4.9-1.2-7.4,0.9-8.6,2.8c0-0.2,0.1-0.3,0.1-0.5c0,0,1.8-7-6.4-8.5
				c-8.3-1.3-9.1,5.9-9.1,5.9c-0.2,1.1-0.3,2.2-0.5,3.3c0.2-1.8,0.5-3.6,0.7-5.4c0,0,1.2-7.2-7.2-7.9c-8.4-0.6-8.5,6.6-8.5,6.6
				c-0.5,8.4-0.9,16.7-1.3,25.1c0.4-9.1,0.7-18.1,1.1-27.2c0,0,0.5-7.2-7.9-7.3c0,0,0,0,0,0c0,0,0,0,0,0c-8.4,0.1-7.9,7.3-7.9,7.3
				c0.3,9.1,0.7,18.1,1.1,27.2c-0.4-8.4-0.9-16.7-1.3-25.1c0,0-0.1-7.2-8.5-6.6c-8.4,0.7-7.2,7.9-7.2,7.9c0.2,1.8,0.5,3.6,0.7,5.4
				c-0.2-1.1-0.3-2.2-0.5-3.3c0,0-0.8-7.2-9.1-5.9c-8.3,1.4-6.4,8.5-6.4,8.5c0,0.2,0.1,0.3,0.1,0.5c-1.2-1.9-3.7-4-8.6-2.8
				c-8.1,2.1-5.6,9-5.6,9c0.1,0.3,0.2,0.7,0.3,1c-1.1-1.9-3.8-4.9-9.4-3c-7.9,2.8-4.8,9.4-4.8,9.4c5.3,12.4,10.6,24.8,16,37.1
				c-5-11.3-10-22.6-15-33.8c0,0-2.8-6.8-10.4-3.4c-7.6,3.4-3.9,9.8-3.9,9.8c3.7,6.9,7.4,13.8,11.2,20.7c-3.3-6-6.6-11.9-10-17.9
				c0,0-3.4-6.5-10.7-2.6c-7.2,4-3,10.1-3,10c3,4.5,6,9,9,13.6c-2.1-3-4.1-6-6.2-9.1c0,0-3.9-6.2-10.9-1.7c-6.8,4.6-2,10.3-2,10.2
				c1.2,1.5,2.5,3.1,3.7,4.6c-1.8-1.4-5.3-3.1-9.8,0.4c-6.4,5.2-1.1,10.4-1.1,10.4c1,1,1.9,2,2.9,3c-1.9-1.2-5.6-2.6-9.7,1.2
				c-5.9,5.7-0.1,10.4-0.1,10.4c1.1,0.9,2.1,1.9,3.2,2.8c-1.1,0.4-2.2,1.2-3.3,2.4c-5.3,6.1,0.9,10.4,0.8,10.4
				c2.4,1.8,4.8,3.5,7.2,5.3c-0.7,0.5-1.4,1.2-2,2.1c-4.8,6.5,1.8,10.3,1.8,10.3c1.1,0.7,2.2,1.3,3.3,2c-0.6,0.6-1.1,1.4-1.6,2.3
				c-3.5,7.2,3.7,9.8,3.6,9.8c2.6,1,5.2,2.1,7.7,3.1c-0.3,0.5-0.7,1-1,1.6c-3.5,7.2,3.7,9.8,3.6,9.8c2.5,1,4.9,2,7.4,3
				c-0.1,0.3-0.3,0.6-0.4,0.9c-2.8,7.5,4.6,9.5,4.5,9.5c3.3,1,6.7,2.1,10,3.1c-1.6,7.2,5.5,8.6,5.5,8.6c12.7,2.8,15.5,7.3,28.3,14.3
				c4.9,2.7,10.1,6.1,15.6,9.9C204.8,223.7,233.1,225.9,244.9,215.4z"/>
		</g>
		<radialGradient id="SVGID_4_" cx="215.6691" cy="191.6108" r="112.3398" gradientUnits="userSpaceOnUse">
			<stop  offset="0.1773" style="stop-color:#FFFFFF"/>
			<stop  offset="0.6448" style="stop-color:#D4EAFF"/>
			<stop  offset="1" style="stop-color:#D4EBFF;stop-opacity:0.8"/>
		</radialGradient>
		<path class="st5" d="M244.9,215.4c0.6-0.6,13.4-7.7,16.3-9.8c9.7-7,13.3-6.4,23.5-12.8c0,0,7.1-1.3,5.5-8.6c3.3-1,6.7-2,10-3.1
			c0,0,7.3-2,4.5-9.5c-0.1-0.3-0.3-0.6-0.4-0.9c2.5-1,4.9-2,7.4-3c0,0,7.1-2.6,3.6-9.8c-0.3-0.6-0.6-1.1-1-1.6
			c2.6-1,5.2-2.1,7.7-3.1c0,0,7.1-2.6,3.6-9.8c-0.5-1-1-1.7-1.6-2.3c1.1-0.7,2.2-1.3,3.3-2c0,0,6.5-3.7,1.8-10.3
			c-0.7-0.9-1.3-1.5-2-2.1c2.4-1.8,4.8-3.5,7.2-5.3c0,0,6.2-4.3,0.8-10.4c-1.1-1.2-2.2-2-3.3-2.4c1.1-0.9,2.1-1.9,3.2-2.8
			c0,0,5.8-4.8-0.1-10.4c-4.1-3.8-7.8-2.5-9.7-1.2c1-1,1.9-2,2.9-3c0,0,5.3-5.2-1.1-10.4c-4.5-3.5-8-1.8-9.8-0.4
			c1.2-1.5,2.5-3.1,3.7-4.6c0,0,4.8-5.6-2-10.2c-6.9-4.5-10.9,1.7-10.9,1.7c-2.1,3-4.1,6-6.2,9.1c3-4.5,6-9,9-13.6c0,0,4.3-6-3-10
			c-7.3-3.9-10.7,2.6-10.7,2.6c-3.3,5.9-6.7,11.9-10,17.9c3.7-6.9,7.5-13.8,11.2-20.7c0,0,3.7-6.3-3.9-9.8
			c-7.6-3.3-10.4,3.5-10.4,3.4c-5.1,11.2-10,22.5-15,33.8c5.4-12.4,10.7-24.7,16-37.1c0,0,3.1-6.6-4.8-9.4c-5.6-1.9-8.3,1.1-9.4,3
			c0.1-0.3,0.2-0.7,0.3-1c0,0,2.5-6.9-5.6-9c-4.9-1.2-7.4,0.9-8.6,2.8c0-0.2,0.1-0.3,0.1-0.5c0,0,1.8-7-6.4-8.5
			c-8.3-1.3-9.1,5.9-9.1,5.9c-0.2,1.1-0.3,2.2-0.5,3.3c0.2-1.8,0.5-3.6,0.7-5.4c0,0,1.2-7.2-7.2-7.9c-8.4-0.6-8.5,6.6-8.5,6.6
			c-0.5,8.4-0.9,16.7-1.3,25.1c0.4-9.1,0.7-18.1,1.1-27.2c0,0,0.5-7.2-7.9-7.3c0,0,0,0,0,0c0,0,0,0,0,0c-8.4,0.1-7.9,7.3-7.9,7.3
			c0.3,9.1,0.7,18.1,1.1,27.2c-0.4-8.4-0.9-16.7-1.3-25.1c0,0-0.1-7.2-8.5-6.6c-8.4,0.7-7.2,7.9-7.2,7.9c0.2,1.8,0.5,3.6,0.7,5.4
			c-0.2-1.1-0.3-2.2-0.5-3.3c0,0-0.8-7.2-9.1-5.9c-8.3,1.4-6.4,8.5-6.4,8.5c0,0.2,0.1,0.3,0.1,0.5c-1.2-1.9-3.7-4-8.6-2.8
			c-8.1,2.1-5.6,9-5.6,9c0.1,0.3,0.2,0.7,0.3,1c-1.1-1.9-3.8-4.9-9.4-3c-7.9,2.8-4.8,9.4-4.8,9.4c5.3,12.4,10.6,24.8,16,37.1
			c-5-11.3-10-22.6-15-33.8c0,0-2.8-6.8-10.4-3.4c-7.6,3.4-3.9,9.8-3.9,9.8c3.7,6.9,7.4,13.8,11.2,20.7c-3.3-6-6.6-11.9-10-17.9
			c0,0-3.4-6.5-10.7-2.6c-7.2,4-3,10.1-3,10c3,4.5,6,9,9,13.6c-2.1-3-4.1-6-6.2-9.1c0,0-3.9-6.2-10.9-1.7c-6.8,4.6-2,10.3-2,10.2
			c1.2,1.5,2.5,3.1,3.7,4.6c-1.8-1.4-5.3-3.1-9.8,0.4c-6.4,5.2-1.1,10.4-1.1,10.4c1,1,1.9,2,2.9,3c-1.9-1.2-5.6-2.6-9.7,1.2
			c-5.9,5.7-0.1,10.4-0.1,10.4c1.1,0.9,2.1,1.9,3.2,2.8c-1.1,0.4-2.2,1.2-3.3,2.4c-5.3,6.1,0.9,10.4,0.8,10.4
			c2.4,1.8,4.8,3.5,7.2,5.3c-0.7,0.5-1.4,1.2-2,2.1c-4.8,6.5,1.8,10.3,1.8,10.3c1.1,0.7,2.2,1.3,3.3,2c-0.6,0.6-1.1,1.4-1.6,2.3
			c-3.5,7.2,3.7,9.8,3.6,9.8c2.6,1,5.2,2.1,7.7,3.1c-0.3,0.5-0.7,1-1,1.6c-3.5,7.2,3.7,9.8,3.6,9.8c2.5,1,4.9,2,7.4,3
			c-0.1,0.3-0.3,0.6-0.4,0.9c-2.8,7.5,4.6,9.5,4.5,9.5c3.3,1,6.7,2.1,10,3.1c-1.6,7.2,5.5,8.6,5.5,8.6c12.7,2.8,15.5,7.3,28.3,14.3
			c4.9,2.7,10.1,6.1,15.6,9.9C204.8,223.7,233.1,225.9,244.9,215.4z"/>
	</g>
	<g class="st6">
		<g>
			<path d="M100.9,105.6c1.1,0.9,2.1,1.8,3.2,2.7c-1.1,0.4-2.2,1.2-3.3,2.4c30,15.9,93.1,53.4,98.5,55.5
				c-4.6-3.5-77.3-49.3-100.9-65.5C98.5,103.6,100.9,105.6,100.9,105.6z M198.6,18.6c0-0.1,0-0.2,0.1-0.3c-5.4,1.8-4.5,7.2-4.5,7.2
				c0.2,1.8,0.5,3.5,0.7,5.3c-0.2-1.1-0.3-2.2-0.5-3.2c0,0-0.5-4.3-4.7-5.6c5.8,16.2,24.3,103,26.4,108.9
				C215.9,124.8,197.8,25.7,198.6,18.6z M107.8,91.2c1,1,1.9,2,2.9,3c-1.4-0.9-3.9-1.9-6.8-0.7c24.5,15.4,95.7,66.9,101.7,70.3
				c-4.8-4.6-82.4-63.9-99.6-78.9C104.9,88.4,107.8,91.2,107.8,91.2z M113.9,152.1c2.6,1,5.2,2,7.7,3c-0.3,0.5-0.7,1-1,1.6
				c-0.3,0.7-0.6,1.4-0.7,2c30.7,11.9,66,26.3,69.3,26.9c-3-1.8-47.1-21.5-78.8-36.2C111.7,151.3,113.9,152.1,113.9,152.1z
				 M108.8,126.1c-0.7,0.5-1.4,1.2-2,2c-0.6,0.8-1.1,1.6-1.3,2.4c31.8,13.5,85.2,38.3,90.1,39.8c-4.1-2.6-60.9-31.2-90.6-46.9
				C106.2,124.2,107.5,125.1,108.8,126.1z M124.2,166.3c2.5,1,4.9,1.9,7.4,2.9c-0.1,0.3-0.3,0.5-0.4,0.9c-0.5,1.3-0.7,2.4-0.6,3.3
				c25.8,12.3,55,26.7,58.5,27.9c-3.2-2.4-42.5-23.9-69.1-39C121.1,165.2,124.3,166.3,124.2,166.3z M110.2,142.4
				c-0.6,1.1-0.8,2.1-0.9,3.1c32.6,12.3,77.7,30.7,82,31.5c-3.5-1.9-48.2-21.8-79.9-36.4C111,141.2,110.6,141.7,110.2,142.4z
				 M111.7,79.4c19.5,14.7,77.5,65.9,82.5,69.2c-3.9-4.7-72.6-69.3-80.4-79c-1.4,3.4,1.2,6.4,1.2,6.4c1.2,1.5,2.5,3,3.7,4.5
				C117.3,79.6,114.9,78.3,111.7,79.4z M159.9,64.5c17.9,29.9,45.4,78.7,48.5,82.9c-2.4-6.4-52.5-102-54.3-109.6
				c-0.2-0.7-0.2-1.6-0.2-2.5c-5.7,3-3.1,8.5-3.1,8.5C153.9,50.8,156.9,57.7,159.9,64.5z M124.7,56.5c-2.1,3.4,0.4,6.9,0.4,6.9
				c3,4.4,6,8.9,9,13.3c-2.1-3-4.1-5.9-6.2-8.9c0,0-2.9-4.5-8.1-2.9c16.1,14.4,81.1,86.6,86.5,91.3c-3.9-5.9-77.7-92.2-81.4-99.4
				C124.8,56.6,124.8,56.5,124.7,56.5z M184.1,22.1c-6.9,1.8-5.2,8.1-5.2,8c0,0.2,0.1,0.3,0.1,0.5c-0.8-1.3-2.3-2.7-4.7-3
				c0,0,0,0,0,0.1c6.2,10.5,38.6,120,41.7,126.8C214.9,147.5,184,33,183.7,25C183.6,24.2,183.8,23.1,184.1,22.1z M139.9,44.5
				c-5.4,3.4-2.3,8.7-2.3,8.7c3.3,6.1,6.7,12.2,10.1,18.3c21.7,28.5,57.4,78.6,61.2,82.8c-3.2-6.3-65.7-99.4-68.5-107
				C140.1,46.7,140,45.6,139.9,44.5z M147.5,71.4c-2.9-5.1-5.8-10.3-8.8-15.4c0,0-2.2-4.2-6.9-3.7c0.2,0.1,0.3,0.2,0.4,0.4
				C134.6,54.7,140.2,61.8,147.5,71.4z M151.8,47.1c0,0-1.6-3.9-5.8-4.2c2.4,3,7.3,10.7,13.3,20.7C156.9,58.1,154.4,52.6,151.8,47.1
				z M171.1,27.6c-0.2,0-0.5,0.1-0.7,0.2c-8.1,2.1-5.6,8.8-5.6,8.8c0.1,0.3,0.2,0.6,0.3,1c-0.3-0.5-0.7-1.1-1.3-1.7
				c10.1,18.2,43.8,97.8,47.1,103.4c-1.5-6.3-39-102.4-39.8-109.8C171,29,171,28.3,171.1,27.6z M319,66.1
				c-6.9-4.4-10.9,1.7-10.9,1.6c-2.1,3-4.1,5.9-6.2,8.9c2.6-3.8,5.2-7.7,7.8-11.5c-19,25.2-71,90-74.3,94.9
				c5.1-4.5,64.5-74.6,83.7-93.9C319.1,66.1,319,66.1,319,66.1z M321.6,75.3c-17.4,19.8-71.9,77.6-75.7,82.2
				c5.3-3.7,60.4-59,81.1-76.5c-4.4-3.3-7.9-1.6-9.7-0.3c1.2-1.5,2.5-3,3.7-4.5C321,76.1,321.3,75.8,321.6,75.3z M314.6,155.3
				c-0.1-0.1-0.1-0.2-0.2-0.2c2.6-1,5.2-2,7.7-3c0,0,4.5-1.6,4.6-5.9c-25.2,11.7-52.8,24.4-55.6,25.8
				C273.9,171.5,293.4,163.7,314.6,155.3z M256,156c4.8-2.6,54.2-43.4,78.4-61.1c-3.9-3.1-7.3-1.9-9.1-0.7c0.9-0.9,1.8-1.8,2.7-2.8
				C305.2,112.3,259.5,152.5,256,156z M335.2,110.7c-1.1-1.2-2.2-1.9-3.3-2.4c0.9-0.7,1.7-1.5,2.6-2.2
				c-27.8,20.1-84.3,59.6-88.6,62.9c5.4-2.1,60.6-38.7,90.6-56.5C336.2,112,335.8,111.3,335.2,110.7z M315.3,156.6
				c-22.1,13.7-48.8,29.6-51.5,31.8c3-1,29.6-15.2,52.4-27c0.2-1.3,0-2.8-0.9-4.7C315.4,156.6,315.4,156.6,315.3,156.6z
				 M328.9,127.6c-28.3,16.2-69,38.9-72.9,41.4c4.8-1.4,45.6-22.4,75-36.4c0-1.3-0.5-2.8-1.7-4.5C329.2,127.9,329,127.8,328.9,127.6
				z M236.3,18c-0.5-0.1-1-0.2-1.6-0.3c-7.1-0.5-8.3,4.5-8.5,6c0.8,24.3-0.7,126-0.3,132.1c1.5-7,6-125.3,9.7-136.4
				C235.8,19.1,236,18.5,236.3,18z M284.5,37.4c-0.8-1-2.1-2-4.2-2.7c-2.9-1-5.1-0.6-6.6,0.2c0,0.3,0,0.6,0,0.9
				c-1,7.8-40.4,108.8-42.1,115.4c3.6-6.3,44.1-102.4,51.2-112C283.2,38.6,283.9,38,284.5,37.4z M299.3,50.7
				c-12,21.5-56.3,92.9-58.8,98c4.3-4.6,52.8-78.2,67-95.4c-7-3.4-10.3,2.7-10.3,2.7c-3.3,5.8-6.7,11.7-10,17.5
				c3.7-6.7,7.5-13.5,11.2-20.3C298.4,53.3,299.1,52.2,299.3,50.7z M215.4,21.9c0.4-2.2,2.7-6.2,2.7-6.2l-0.4-0.6
				c-8.1,0.2-7.6,7.1-7.6,7.1c0.3,8.9,0.7,17.7,1.1,26.6c-0.4-8.2-0.9-16.4-1.3-24.6c0,0-0.1-6-6.6-6.5c0.9,1.4,2.1,3.3,2.5,4.6
				c3.8,12.3,15,119.5,16.5,127.2C222.6,142.2,214,30.3,215.4,21.9z M266.1,27.9c-0.2,0-0.3-0.1-0.5-0.1c-4.9-1.2-7.4,0.9-8.6,2.8
				c0-0.2,0.1-0.3,0.1-0.5c0,0,0.4-1.3,0-3c-3.7,20.4-24.6,106.8-25.5,112.8C234.5,133.8,258.6,45.1,266.1,27.9z M252,22.1
				c-0.4-0.1-0.8-0.2-1.2-0.3c-6.9-1.1-8.6,3.7-9,5.3c-1.8,22.7-11.3,97.3-11.6,103.9c2.4-7.6,16.4-96.4,21.6-108.2
				C251.7,22.5,251.8,22.3,252,22.1z M294.3,43.6c-7.4-2.9-10.1,3.5-10.1,3.5c-5.1,11-10,22.1-15,33.1c5.4-12.1,10.7-24.2,16-36.4
				c0,0,0.8-1.7,0.5-3.8c-5.2,14.3-43.7,96-46.3,102.7C243.9,136.4,284.4,56.2,294.3,43.6z M241.9,24.6c0,0.3,0,0.7-0.1,1
				c0,0,0-0.1,0-0.1C241.9,25.5,241.9,25.1,241.9,24.6z"/>
		</g>
	</g>
	<g class="st7">
		<g>
			<path class="st8" d="M117.1,79c20.4,17.1,73.1,63.9,77.5,67.4c-4.2-4.3-74.2-68.2-81.3-75.8c-0.8,3.1,1.5,5.7,1.5,5.7
				C115.6,77.1,116.4,78.1,117.1,79z M125,63.4c2.6,3.8,5.2,7.7,7.8,11.5c23.9,24.8,69.9,74,74.1,78c-4.2-5.1-72.8-80.5-83.1-92.9
				C124,62,125,63.5,125,63.4z M107.7,91.2c25.1,16.9,92.1,65.3,97.7,68.8c-4.9-4.3-81.8-61.8-99.2-75.9
				C104.4,87.8,107.4,90.9,107.7,91.2z M132.6,52.4c2.9,3.4,7.7,9.4,13.5,16.8c-2.5-4.4-5-8.7-7.5-13.1
				C138.6,56.2,136.7,52.5,132.6,52.4z M120.1,162.9c27.1,13.4,66,33.1,69.9,34.8c-3.5-2.1-43.9-23.3-70.5-37.5
				C119.5,161.2,119.7,162.1,120.1,162.9z M127.8,67.8c0,0-1.8-2.8-5.1-3.2c2.5,2.4,5.9,5.9,10,10.1C131,72.5,129.4,70.1,127.8,67.8
				z M107.1,127.6c30.1,12.4,77.4,33,82,34.6c-4.3-2.5-61.4-28.9-88.7-42.2c0.6,0.7,1.1,1,1.1,1c2.4,1.7,4.8,3.4,7.2,5.2
				C108.1,126.5,107.6,127,107.1,127.6z M100.8,105.6c0.4,0.3,0.7,0.6,1.1,1c26.2,14.5,88.2,51.6,93.5,54.3
				c-4.8-3.6-78.6-49.8-96.8-62.2C97.1,102.7,100.8,105.7,100.8,105.6z M178.7,30.2c0,0.2,0.1,0.3,0.1,0.5c-0.7-1.1-2-2.4-4-2.9
				c7.1,18,36.2,108.5,38.7,114.9c-1.5-6.3-30.8-102.2-34.4-116.9C178.1,28,178.7,30.2,178.7,30.2z M150.8,44
				c2.2,5.1,4.5,10.3,6.7,15.4c17.8,28.5,48.6,79.9,51.6,84.3c-2.9-5.9-55-96.3-58.6-104.5C149.6,41.6,150.8,44,150.8,44z M167.4,29
				c-1.5,0.9-2.4,2-2.8,3.2c7.8,15.6,42.9,97.2,45.7,103C208.3,129.2,169.5,35.9,167.4,29C167.5,29.1,167.5,29,167.4,29z
				 M137.5,53.4c3,5.4,5.9,10.8,8.9,16.2c21.8,27.8,57.5,74.8,61,78.9c-3.4-5.3-58.7-80.3-70.8-97.9
				C136.8,52.2,137.5,53.4,137.5,53.4z M109.2,146.5c0.1,1.2,0.5,2.1,1,2.9c25.2,10.2,63.3,26.1,67.1,27.4
				C173.9,175.1,133.8,157.5,109.2,146.5z M110.8,141.3c27.9,10.9,63.5,25.3,67.3,26.5c-3.5-1.8-44-19.2-71.9-31.5
				c1,1.2,2.2,1.9,2.2,1.9c1.1,0.7,2.2,1.3,3.3,2C111.4,140.5,111.1,140.9,110.8,141.3z M151.7,47.2c0,0-1.3-3.1-4.6-4
				c2,2.9,5.4,8.2,9.6,14.8C155,54.4,153.4,50.8,151.7,47.2z M256.9,30.7c0-0.2,0.1-0.3,0.1-0.5c0,0,0.6-2.1-0.4-4.3
				c-4.1,21-23.1,105.3-24.1,111.1c1.8-6,21-85.6,27.6-109C258.6,28.6,257.6,29.7,256.9,30.7z M194,25.6c0.2,1.8,0.5,3.5,0.7,5.3
				c-0.2-1.1-0.3-2.2-0.5-3.2c0,0-0.5-4.2-4.5-5.5c6.3,22.2,23.8,93.5,25.5,99c-0.8-4.9-15.8-70.1-21.2-95.6
				C194,25.6,194,25.6,194,25.6z M318.6,79.9c-21.9,22.6-72.4,73.2-76,77.3c4.7-4,59.6-57.6,81.4-77.6
				C321.8,78.8,320,79.2,318.6,79.9z M280.2,34.8c-1.2-0.4-2.2-0.6-3.1-0.6c-8.2,22.2-40.6,101-42.4,106.7
				c3-5.7,36.5-83.9,47.1-105.4C281.3,35.2,280.8,35,280.2,34.8z M274.2,167.7c3.1-1.2,28.5-12.2,52.3-22.5c-0.1-0.5-0.2-1-0.4-1.5
				C302.5,154.6,276.9,166.2,274.2,167.7z M335.1,110.8c-1.1-1.2-2.2-1.9-3.3-2.4c0.1-0.1,0.3-0.2,0.4-0.4
				c-28.3,18.8-81.7,53-85.8,56.1C251.5,161.5,305.7,128,335.1,110.8C335.1,110.8,335.1,110.8,335.1,110.8z M314.9,156.1
				c-0.2-0.3-0.4-0.7-0.7-1c2.6-1,5.2-2,7.7-3c0,0,3.7-1.3,4.5-4.8c-23.2,13.5-59.1,33.7-62.4,35.8
				C266.9,181.9,292.7,167.9,314.9,156.1z M329.4,89.4c-21.9,18.9-70.5,59.8-74.1,63.1c4.1-3.1,49.6-40.6,73.3-59.5
				c-1.4,0.1-2.6,0.7-3.4,1.2c1-1,1.9-2,2.9-3C328.1,91.3,328.8,90.6,329.4,89.4z M245.2,22.5c-2.7,22.2-14.4,97.6-14.8,102.9
				c1.4-5.7,14.6-82.7,19.2-103.6C247.7,21.7,246.3,22,245.2,22.5z M228.8,19.2c0.2,15.7-2.7,110.2-2.5,116.4
				c0.6-6.8,4.7-104.5,6.4-117.7C231,18,229.7,18.5,228.8,19.2z M212.3,19.2c0-0.7,0.2-1.7,0.4-2.6c-3,2.1-2.8,5.8-2.8,5.7
				c0.3,8.9,0.7,17.7,1.1,26.6c-0.4-8.2-0.9-16.4-1.3-24.6c0,0-0.1-4.1-3.8-5.8c0.1,0.4,0.2,0.7,0.3,1.1
				c3,12.1,14.9,122.9,16.2,130.5C222.4,142.9,211.9,27.4,212.3,19.2z M247.3,124.4c2.7-4.3,31.1-60.1,43.1-81.5
				c-4.5,0.1-6.3,4.3-6.3,4.3c-5.1,11-10,22.1-15,33.1c5.3-11.9,10.5-23.8,15.7-35.7C273.8,68.5,248.8,120.3,247.3,124.4z
				 M301.8,76.7c0.4-0.7,0.9-1.3,1.3-2c-20.7,25.4-54.2,65.6-56.8,69.3c4.2-4.1,51.5-58.5,70.6-78.9c-2.7-1.1-4.8-0.6-6.3,0.3
				c-2.1,2.6-4.5,5.6-7.2,8.9C302.9,75.2,302.4,75.9,301.8,76.7z M327.2,126.2c-23,12.9-50.6,28.2-53.2,29.9
				c3.2-1.4,31.4-16.2,55-28.2C328.4,127.2,327.8,126.7,327.2,126.2z M297.2,56.1c-3.3,5.8-6.7,11.7-10,17.5
				c3.3-5.9,6.5-11.7,9.7-17.6c-14.8,23.8-52.3,80.9-54.8,85.4c3.9-4.7,49.8-71.7,63.1-88.8C299.7,51.3,297.1,56.2,297.2,56.1z"/>
		</g>
	</g>
	<g class="st7">
		<radialGradient id="SVGID_5_" cx="205.0738" cy="93.276" r="47.7134" gradientUnits="userSpaceOnUse">
			<stop  offset="0" style="stop-color:#FFFFFF"/>
			<stop  offset="1.473628e-02" style="stop-color:#F6F6F6;stop-opacity:0.5"/>
			<stop  offset="1" style="stop-color:#000000"/>
		</radialGradient>
		<line class="st9" x1="187.4" y1="28.4" x2="222.8" y2="158.1"/>
		<g>
			<radialGradient id="SVGID_6_" cx="204.6742" cy="93.2818" r="48.0976" gradientUnits="userSpaceOnUse">
				<stop  offset="0" style="stop-color:#FFFFFF"/>
				<stop  offset="1.473628e-02" style="stop-color:#F6F6F6;stop-opacity:0.5"/>
				<stop  offset="1" style="stop-color:#000000"/>
			</radialGradient>
			<path class="st10" d="M186.5,29.5c0-0.1,0-0.1,0-0.2c0.2-0.6,0.8-1.5,2-0.6c0,0,0.1,0.1,0.1,0.1l1,3.6l32.1,117.5
				c0,0,0.7,3.3,1,5.7c0.6,4-0.3,2.6-1.2,0.2c0,0.3-2-5.7-2-5.7L187.5,33L186.5,29.5z"/>
		</g>
		<radialGradient id="SVGID_7_" cx="211.6185" cy="74.3873" r="38.9997" gradientUnits="userSpaceOnUse">
			<stop  offset="0" style="stop-color:#FFFFFF"/>
			<stop  offset="1.473628e-02" style="stop-color:#F6F6F6;stop-opacity:0.5"/>
			<stop  offset="1" style="stop-color:#000000"/>
		</radialGradient>
		<path class="st11" d="M205.8,21c0-0.1,0-0.1,0-0.1c0.3-0.5,1-1.3,2.1-0.2c0,0,0.1,0.1,0.1,0.2l0.3,3.7l9.1,95.9c0,0,0.1,3.4,0,5.8
			c-0.1,4.1-0.7,2.5-1.2,0c0,0.3-1-5.9-1-5.9l-9.1-95.6L205.8,21z"/>
		<radialGradient id="SVGID_8_" cx="219.7219" cy="83.4984" r="45.667" gradientUnits="userSpaceOnUse">
			<stop  offset="0" style="stop-color:#FFFFFF"/>
			<stop  offset="1.473628e-02" style="stop-color:#F6F6F6;stop-opacity:0.5"/>
			<stop  offset="1" style="stop-color:#000000"/>
		</radialGradient>
		<path class="st12" d="M215.5,20.5c0-0.1,0-0.1,0-0.1c0.3-0.5,1.1-1.3,2.1-0.1c0,0,0.1,0.1,0.1,0.2l0.2,3.7l6.1,115.1
			c0,0,0,3.4-0.3,5.8c-0.3,4.1-0.8,2.5-1.2,0c0,0.3-0.7-5.9-0.7-5.9l-6.1-114.8L215.5,20.5z"/>
		<radialGradient id="SVGID_9_" cx="234.6702" cy="59.7149" r="24.3906" gradientUnits="userSpaceOnUse">
			<stop  offset="0" style="stop-color:#FFFFFF"/>
			<stop  offset="1.473628e-02" style="stop-color:#F6F6F6;stop-opacity:0.5"/>
			<stop  offset="1" style="stop-color:#000000"/>
		</radialGradient>
		<path class="st13" d="M235.3,26.6c0-0.1,0-0.1,0.1-0.1c0.3-0.5,1.2-1.1,2.1,0.1c0,0,0.1,0.1,0.1,0.2l-0.2,3.7l-3.4,55
			c0,0-0.4,3.4-0.9,5.7c-0.7,4-1.1,2.4-1.2-0.2c-0.1,0.3-0.1-6-0.1-6l3.3-54.7L235.3,26.6z"/>
		<radialGradient id="SVGID_10_" cx="242.121" cy="85.3493" r="40.2906" gradientUnits="userSpaceOnUse">
			<stop  offset="0" style="stop-color:#FFFFFF"/>
			<stop  offset="1.473628e-02" style="stop-color:#F6F6F6;stop-opacity:0.5"/>
			<stop  offset="1" style="stop-color:#000000"/>
		</radialGradient>
		<path class="st14" d="M251.7,30.8c0-0.1,0-0.1,0.1-0.1c0.4-0.4,1.3-1,2,0.4c0,0,0.1,0.1,0.1,0.2l-0.7,3.6l-19.8,97.8
			c0,0-0.9,3.3-1.7,5.5c-1.3,3.9-1.4,2.2-1.2-0.3c-0.1,0.2,0.8-5.9,0.8-5.9L251,34.4L251.7,30.8z"/>
		<radialGradient id="SVGID_11_" cx="250.9179" cy="94.2799" r="43.848" gradientUnits="userSpaceOnUse">
			<stop  offset="0" style="stop-color:#FFFFFF"/>
			<stop  offset="1.473628e-02" style="stop-color:#F6F6F6;stop-opacity:0.5"/>
			<stop  offset="1" style="stop-color:#000000"/>
		</radialGradient>
		<path class="st15" d="M269.9,36.8C269.9,36.7,269.9,36.7,269.9,36.8c0.4-0.3,1.1-0.6,1.5,0.4c0,0,0,0.1,0,0.1
			c-0.5,1.5-38.2,109.7-38.2,109.7s-0.9,2.2-1.7,3.7c-1.2,2.6-1.2,1.4-0.8-0.3c-0.1,0.2,1.1-4,1.1-4S269.4,38.3,269.9,36.8z"/>
		<radialGradient id="SVGID_12_" cx="256.2246" cy="100.1201" r="45.177" gradientUnits="userSpaceOnUse">
			<stop  offset="0" style="stop-color:#FFFFFF"/>
			<stop  offset="1.473628e-02" style="stop-color:#F6F6F6;stop-opacity:0.5"/>
			<stop  offset="1" style="stop-color:#000000"/>
		</radialGradient>
		<path class="st16" d="M279.9,42.4C280,42.3,280,42.3,279.9,42.4c0.4-0.3,1.1-0.5,1.4,0.5c0,0,0,0.1,0,0.1
			c-0.6,1.5-47.2,110.2-47.2,110.2s-1.1,2.1-2,3.6c-1.4,2.5-1.3,1.3-0.8-0.4c-0.1,0.2,1.4-4,1.4-4S279.3,43.9,279.9,42.4z"/>
		<radialGradient id="SVGID_13_" cx="270.5262" cy="90.0062" r="33.8266" gradientUnits="userSpaceOnUse">
			<stop  offset="0" style="stop-color:#FFFFFF"/>
			<stop  offset="1.473628e-02" style="stop-color:#F6F6F6;stop-opacity:0.5"/>
			<stop  offset="1" style="stop-color:#000000"/>
		</radialGradient>
		<path class="st17" d="M292.3,49.1C292.3,49.1,292.3,49.1,292.3,49.1c0.4-0.3,1.2-0.4,1.4,0.6c0,0,0,0.1,0,0.1l-1.3,2.3L251,126.5
			c0,0-1.3,2-2.3,3.3c-1.7,2.3-1.4,1.2-0.7-0.5c-0.1,0.1,1.8-3.8,1.8-3.8L291,51.4L292.3,49.1z"/>
		<radialGradient id="SVGID_14_" cx="270.7403" cy="109.0943" r="40.3953" gradientUnits="userSpaceOnUse">
			<stop  offset="0" style="stop-color:#FFFFFF"/>
			<stop  offset="1.473628e-02" style="stop-color:#F6F6F6;stop-opacity:0.5"/>
			<stop  offset="1" style="stop-color:#000000"/>
		</radialGradient>
		<path class="st18" d="M303.8,64.4C303.8,64.4,303.8,64.4,303.8,64.4c0.5-0.2,1.2-0.2,1.3,0.8c0,0,0,0.1,0,0.1l-1.6,2.1l-62.9,82.4
			c0,0-1.6,1.8-2.8,3c-2,2-1.6,0.9-0.7-0.6c-0.1,0.1,2.3-3.5,2.3-3.5l62.8-82.2L303.8,64.4z"/>
		<radialGradient id="SVGID_15_" cx="276.5723" cy="117.3973" r="42.4782" gradientUnits="userSpaceOnUse">
			<stop  offset="0" style="stop-color:#FFFFFF"/>
			<stop  offset="1.473628e-02" style="stop-color:#F6F6F6;stop-opacity:0.5"/>
			<stop  offset="1" style="stop-color:#000000"/>
		</radialGradient>
		<path class="st19" d="M315.8,73.7C315.9,73.7,315.9,73.7,315.8,73.7c0.4-0.1,0.9-0.1,0.8,0.7c0,0,0,0.1,0,0.1c-1,1.1-77,84-77,84
			s-1.2,1.2-2.2,1.9c-1.5,1.3-1.2,0.6-0.4-0.4c-0.1,0.1,1.9-2.3,1.9-2.3S314.8,74.9,315.8,73.7z"/>
		<radialGradient id="SVGID_16_" cx="283.2242" cy="123.5788" r="39.9158" gradientUnits="userSpaceOnUse">
			<stop  offset="0" style="stop-color:#FFFFFF"/>
			<stop  offset="1.473628e-02" style="stop-color:#F6F6F6;stop-opacity:0.5"/>
			<stop  offset="1" style="stop-color:#000000"/>
		</radialGradient>
		<path class="st20" d="M322.8,85.2C322.8,85.2,322.9,85.2,322.8,85.2c0.4-0.1,0.9,0,0.8,0.7c0,0,0,0.1,0,0.1
			c-1.1,1-77.4,73.5-77.4,73.5s-1.3,1.1-2.3,1.8c-1.6,1.2-1.2,0.5-0.4-0.5c-0.1,0.1,2-2.2,2-2.2S321.7,86.3,322.8,85.2z"/>
		<radialGradient id="SVGID_17_" cx="293.5873" cy="128.5804" r="34.1116" gradientUnits="userSpaceOnUse">
			<stop  offset="0" style="stop-color:#FFFFFF"/>
			<stop  offset="1.473628e-02" style="stop-color:#F6F6F6;stop-opacity:0.5"/>
			<stop  offset="1" style="stop-color:#000000"/>
		</radialGradient>
		<path class="st21" d="M330.9,100.1C330.9,100,330.9,100,330.9,100.1c0.4,0,0.9,0.1,0.7,0.8c0,0,0,0.1,0,0.1
			c-1,0.7-72.3,54.2-72.3,54.2s-1.4,0.9-2.5,1.5c-1.8,1-1.3,0.3-0.3-0.5c-0.1,0.1,2.3-2,2.3-2S329.8,100.8,330.9,100.1z"/>
		<radialGradient id="SVGID_18_" cx="292.2241" cy="144.0927" r="36.0823" gradientUnits="userSpaceOnUse">
			<stop  offset="0" style="stop-color:#FFFFFF"/>
			<stop  offset="1.473628e-02" style="stop-color:#F6F6F6;stop-opacity:0.5"/>
			<stop  offset="1" style="stop-color:#000000"/>
		</radialGradient>
		<path class="st22" d="M335.1,118.4C335.1,118.4,335.1,118.4,335.1,118.4c0.2,0,0.5,0.1,0.4,0.5c0,0,0,0,0,0
			c-1.1,0.7-84.2,49.8-84.2,49.8s-0.9,0.5-1.6,0.7c-1.1,0.5-0.8,0.1-0.2-0.3c-0.1,0,1.5-1,1.5-1S334,119.1,335.1,118.4z"/>
		<radialGradient id="SVGID_19_" cx="293.0237" cy="156.8449" r="27.9004" gradientUnits="userSpaceOnUse">
			<stop  offset="0" style="stop-color:#FFFFFF"/>
			<stop  offset="1.473628e-02" style="stop-color:#F6F6F6;stop-opacity:0.5"/>
			<stop  offset="1" style="stop-color:#000000"/>
		</radialGradient>
		<path class="st23" d="M327,139C327,138.9,327.1,138.9,327,139c0.2,0,0.5,0.1,0.3,0.5c0,0,0,0,0,0c-0.9,0.5-66.4,34.4-66.4,34.4
			s-0.9,0.4-1.6,0.6c-1.1,0.4-0.8,0.1-0.1-0.3c-0.1,0,1.5-0.9,1.5-0.9S326.1,139.4,327,139z"/>
		<radialGradient id="SVGID_20_" cx="286.7993" cy="168.1649" r="20.2884" gradientUnits="userSpaceOnUse">
			<stop  offset="0" style="stop-color:#FFFFFF"/>
			<stop  offset="1.473628e-02" style="stop-color:#F6F6F6;stop-opacity:0.5"/>
			<stop  offset="1" style="stop-color:#000000"/>
		</radialGradient>
		<path class="st24" d="M311.1,155C311.2,155,311.2,155,311.1,155c0.2,0,0.5,0.1,0.3,0.5c0,0,0,0,0,0c-0.6,0.3-47,24.8-47,24.8
			s-0.9,0.4-1.6,0.7c-1.1,0.4-0.8,0.1-0.2-0.3c-0.1,0,1.5-0.9,1.5-0.9S310.5,155.4,311.1,155z"/>
		<radialGradient id="SVGID_21_" cx="288.582" cy="178.1656" r="14.841" gradientUnits="userSpaceOnUse">
			<stop  offset="0" style="stop-color:#FFFFFF"/>
			<stop  offset="1.473628e-02" style="stop-color:#F6F6F6;stop-opacity:0.5"/>
			<stop  offset="1" style="stop-color:#000000"/>
		</radialGradient>
		<path class="st25" d="M305.5,167.6C305.5,167.6,305.5,167.6,305.5,167.6c0.2,0,0.5,0.1,0.4,0.5c0,0,0,0,0,0.1l-0.9,0.6l-31.4,19
			c0,0-0.9,0.5-1.6,0.7c-1.1,0.5-0.8,0.1-0.2-0.3c-0.1,0,1.5-1,1.5-1l31.3-18.9L305.5,167.6z"/>
		<radialGradient id="SVGID_22_" cx="186.9949" cy="67.6522" r="27.6156" gradientUnits="userSpaceOnUse">
			<stop  offset="0" style="stop-color:#FFFFFF"/>
			<stop  offset="1.473628e-02" style="stop-color:#F6F6F6;stop-opacity:0.5"/>
			<stop  offset="1" style="stop-color:#000000"/>
		</radialGradient>
		<path class="st26" d="M173.4,32.9c0-0.1,0-0.1,0-0.2c0.1-0.6,0.6-1.5,1.9-0.7c0,0,0.1,0.1,0.1,0.1l1.3,3.5l21.9,59.8
			c0,0,1,3.3,1.5,5.6c0.9,3.9-0.1,2.6-1.2,0.4c0,0.3-2.5-5.5-2.5-5.5l-21.8-59.6L173.4,32.9z"/>
		<radialGradient id="SVGID_23_" cx="188.2523" cy="95.9734" r="45.1722" gradientUnits="userSpaceOnUse">
			<stop  offset="0" style="stop-color:#FFFFFF"/>
			<stop  offset="1.473628e-02" style="stop-color:#F6F6F6;stop-opacity:0.5"/>
			<stop  offset="1" style="stop-color:#000000"/>
		</radialGradient>
		<path class="st27" d="M159.4,41.1c0,0,0-0.1,0-0.2c0.1-0.6,0.5-1.6,1.8-1c0,0,0.1,0.1,0.2,0.1l1.7,3.3l51.3,101
			c0,0,1.3,3.1,2.1,5.4c1.4,3.8,0.2,2.6-1.1,0.5c0.1,0.3-3.1-5.1-3.1-5.1L161.1,44.4L159.4,41.1z"/>
		<radialGradient id="SVGID_24_" cx="177.4975" cy="96.2334" r="41.9125" gradientUnits="userSpaceOnUse">
			<stop  offset="0" style="stop-color:#FFFFFF"/>
			<stop  offset="1.473628e-02" style="stop-color:#F6F6F6;stop-opacity:0.5"/>
			<stop  offset="1" style="stop-color:#000000"/>
		</radialGradient>
		<path class="st28" d="M145.5,48.2c0,0,0,0,0-0.1c0-0.4,0.2-1.1,1.2-0.8c0,0,0.1,0,0.1,0.1l1.4,2.2l58.9,90.5c0,0,1.2,2.1,1.9,3.6
			c1.3,2.5,0.4,1.8-0.8,0.4c0.1,0.2-2.5-3.3-2.5-3.3l-58.8-90.3L145.5,48.2z"/>
		<radialGradient id="SVGID_25_" cx="170.7559" cy="104.7322" r="44.0259" gradientUnits="userSpaceOnUse">
			<stop  offset="0" style="stop-color:#FFFFFF"/>
			<stop  offset="1.473628e-02" style="stop-color:#F6F6F6;stop-opacity:0.5"/>
			<stop  offset="1" style="stop-color:#000000"/>
		</radialGradient>
		<path class="st29" d="M131.6,58.4c0,0,0,0,0-0.1c0-0.4,0.1-1.1,1.1-0.9c0,0,0.1,0,0.1,0.1c1,1.2,74.1,89.8,74.1,89.8
			s1.4,1.9,2.3,3.4c1.5,2.4,0.6,1.7-0.7,0.5c0.1,0.2-2.9-3-2.9-3S132.6,59.6,131.6,58.4z"/>
		<radialGradient id="SVGID_26_" cx="164.2786" cy="112.0161" r="42.9891" gradientUnits="userSpaceOnUse">
			<stop  offset="0" style="stop-color:#FFFFFF"/>
			<stop  offset="1.473628e-02" style="stop-color:#F6F6F6;stop-opacity:0.5"/>
			<stop  offset="1" style="stop-color:#000000"/>
		</radialGradient>
		<path class="st30" d="M121.3,71.3C121.3,71.2,121.3,71.2,121.3,71.3c-0.1-0.5-0.1-1.2,1-1.2c0,0,0.1,0,0.1,0l1.9,1.8l79.5,77.3
			c0,0,1.6,1.8,2.6,3.1c1.8,2.2,0.7,1.7-0.6,0.6c0.1,0.2-3.2-2.7-3.2-2.7l-79.4-77.2L121.3,71.3z"/>
		<radialGradient id="SVGID_27_" cx="159.9358" cy="122.2267" r="42.9863" gradientUnits="userSpaceOnUse">
			<stop  offset="0" style="stop-color:#FFFFFF"/>
			<stop  offset="1.473628e-02" style="stop-color:#F6F6F6;stop-opacity:0.5"/>
			<stop  offset="1" style="stop-color:#000000"/>
		</radialGradient>
		<path class="st31" d="M114.3,84.4C114.3,84.4,114.3,84.4,114.3,84.4c-0.2-0.5-0.2-1.2,0.9-1.2c0,0,0.1,0,0.1,0l2,1.7l84.5,71.9
			c0,0,1.7,1.7,2.8,2.9c1.9,2.1,0.9,1.6-0.6,0.6c0.1,0.1-3.4-2.5-3.4-2.5l-84.3-71.8L114.3,84.4z"/>
		<radialGradient id="SVGID_28_" cx="155.7059" cy="131.2529" r="42.3553" gradientUnits="userSpaceOnUse">
			<stop  offset="0" style="stop-color:#FFFFFF"/>
			<stop  offset="1.473628e-02" style="stop-color:#F6F6F6;stop-opacity:0.5"/>
			<stop  offset="1" style="stop-color:#000000"/>
		</radialGradient>
		<path class="st32" d="M106.5,99.5C106.5,99.5,106.5,99.4,106.5,99.5c-0.2-0.3-0.2-0.9,0.5-0.9c0,0,0.1,0,0.1,0
			c1.3,0.9,94.8,62.7,94.8,62.7s1.4,1,2.2,1.8c1.6,1.3,0.7,1.1-0.4,0.5c0.1,0.1-2.6-1.5-2.6-1.5S107.8,100.3,106.5,99.5z"/>
		<radialGradient id="SVGID_29_" cx="148.9736" cy="140.8326" r="36.9096" gradientUnits="userSpaceOnUse">
			<stop  offset="0" style="stop-color:#FFFFFF"/>
			<stop  offset="1.473628e-02" style="stop-color:#F6F6F6;stop-opacity:0.5"/>
			<stop  offset="1" style="stop-color:#000000"/>
		</radialGradient>
		<path class="st33" d="M102.8,119.3C102.8,119.3,102.8,119.3,102.8,119.3c-0.2-0.3-0.3-0.8,0.4-1c0,0,0.1,0,0.1,0
			c1.2,0.6,88.6,42.7,88.6,42.7s1.5,0.8,2.5,1.5c1.7,1.1,0.9,1-0.3,0.5c0.1,0.1-2.8-1.1-2.8-1.1S104.1,119.9,102.8,119.3z"/>
		<radialGradient id="SVGID_30_" cx="152.4333" cy="153.7891" r="33.4162" gradientUnits="userSpaceOnUse">
			<stop  offset="0" style="stop-color:#FFFFFF"/>
			<stop  offset="1.473628e-02" style="stop-color:#F6F6F6;stop-opacity:0.5"/>
			<stop  offset="1" style="stop-color:#000000"/>
		</radialGradient>
		<path class="st34" d="M109.8,136.6C109.7,136.5,109.7,136.5,109.8,136.6c-0.2-0.3-0.4-0.8,0.3-1c0,0,0.1,0,0.1,0
			c1.1,0.5,81.6,34.3,81.6,34.3s1.5,0.8,2.5,1.4c1.8,1,0.9,0.9-0.3,0.6c0.1,0.1-2.8-1-2.8-1S110.9,137,109.8,136.6z"/>
		<radialGradient id="SVGID_31_" cx="154.3489" cy="163.9334" r="30.1156" gradientUnits="userSpaceOnUse">
			<stop  offset="0" style="stop-color:#FFFFFF"/>
			<stop  offset="1.473628e-02" style="stop-color:#F6F6F6;stop-opacity:0.5"/>
			<stop  offset="1" style="stop-color:#000000"/>
		</radialGradient>
		<path class="st35" d="M115.1,150.2C115.1,150.2,115.1,150.2,115.1,150.2c-0.1-0.2-0.3-0.5,0.2-0.6c0,0,0,0,0.1,0
			c1,0.4,76.3,27.5,76.3,27.5s0.9,0.4,1.6,0.7c1.1,0.5,0.6,0.5-0.1,0.3c0.1,0-1.7-0.5-1.7-0.5S116.1,150.6,115.1,150.2z"/>
		<radialGradient id="SVGID_32_" cx="157.3406" cy="177.0162" r="24.9618" gradientUnits="userSpaceOnUse">
			<stop  offset="0" style="stop-color:#FFFFFF"/>
			<stop  offset="1.473628e-02" style="stop-color:#F6F6F6;stop-opacity:0.5"/>
			<stop  offset="1" style="stop-color:#000000"/>
		</radialGradient>
		<path class="st36" d="M125.4,164.4C125.4,164.4,125.4,164.4,125.4,164.4c-0.1-0.2-0.2-0.5,0.2-0.6c0,0,0,0,0.1,0
			c0.8,0.3,61.5,25.1,61.5,25.1s0.9,0.4,1.5,0.8c1.1,0.6,0.6,0.5-0.2,0.3c0.1,0-1.7-0.6-1.7-0.6S126.3,164.8,125.4,164.4z"/>
	</g>
	<g>
		<g>
		</g>
	</g>
</g>
<g id="tekst">
	<g>
		<g>
			<path class="st37" d="M57.8,237.7c-0.2,1.5-0.3,3-0.3,4.4c-0.1,1.4-0.1,2.5-0.1,3.3c0,1,0,1.9,0.1,2.7c0,0.8,0.1,1.6,0.1,2.2
				h-1.4c-0.3-2.8-0.7-5-1.1-6.6c-0.5-1.6-1.3-2.8-2.5-3.5c-1.2-0.7-3.1-1.1-5.6-1.1h-3.2v34.1c0,1.6,0.1,2.8,0.5,3.6
				c0.3,0.8,0.9,1.3,1.8,1.6c0.9,0.3,2.2,0.5,3.8,0.5v1.2c-1-0.1-2.4-0.1-4-0.2c-1.6,0-3.2,0-4.9,0c-1.8,0-3.5,0-5.1,0
				c-1.6,0-2.8,0.1-3.8,0.2V279c1.7-0.1,3-0.3,3.8-0.5c0.9-0.3,1.5-0.8,1.8-1.6c0.3-0.8,0.4-2,0.4-3.6v-34.1h-3.2
				c-2.5,0-4.3,0.4-5.6,1.1c-1.2,0.7-2.1,1.9-2.5,3.5s-0.9,3.8-1.1,6.6h-1.4c0.1-0.6,0.1-1.4,0.1-2.2c0-0.8,0-1.7,0-2.7
				c0-0.8,0-1.8-0.1-3.3c-0.1-1.4-0.2-2.9-0.3-4.4c1.7,0,3.5,0.1,5.5,0.1c2,0,4,0.1,6,0.1c2,0,3.8,0,5.5,0c1.6,0,3.4,0,5.4,0
				s4,0,6-0.1C54.3,237.8,56.1,237.7,57.8,237.7z"/>
			<path class="st37" d="M62,280.2V279c1.4-0.1,2.4-0.2,3.1-0.5c0.7-0.2,1.2-0.7,1.4-1.4c0.2-0.7,0.4-1.8,0.4-3.2v-29.8
				c0-1.5-0.1-2.6-0.4-3.3c-0.2-0.7-0.7-1.2-1.4-1.4c-0.7-0.3-1.7-0.4-3.1-0.5v-1.2c0.8,0,1.9,0.1,3.3,0.1c1.4,0,2.8,0.1,4.4,0.1
				c1.4,0,2.8,0,4.2-0.1c1.4,0,2.5-0.1,3.4-0.1v1.2c-1.4,0-2.4,0.2-3.1,0.5c-0.7,0.3-1.2,0.7-1.4,1.4c-0.2,0.7-0.4,1.8-0.4,3.3v29.8
				c0,1.4,0.1,2.5,0.4,3.2c0.2,0.7,0.7,1.2,1.4,1.4c0.7,0.2,1.7,0.4,3.1,0.5v1.2c-0.9-0.1-2.1-0.1-3.4-0.2c-1.4,0-2.8,0-4.2,0
				c-1.6,0-3,0-4.4,0C64,280.1,62.9,280.1,62,280.2z M70.4,259.4v-1.2h23.7v1.2H70.4z M87.1,280.2V279c1.4-0.1,2.4-0.2,3.1-0.5
				c0.7-0.2,1.2-0.7,1.4-1.4c0.2-0.7,0.4-1.8,0.4-3.2v-29.8c0-1.5-0.1-2.6-0.4-3.3c-0.2-0.7-0.7-1.2-1.4-1.4
				c-0.7-0.3-1.7-0.4-3.1-0.5v-1.2c0.9,0,2.1,0.1,3.5,0.1c1.4,0,2.8,0.1,4.1,0.1c1.6,0,3,0,4.4-0.1c1.4,0,2.5-0.1,3.3-0.1v1.2
				c-1.4,0-2.4,0.2-3.1,0.5c-0.7,0.3-1.2,0.7-1.4,1.4c-0.2,0.7-0.4,1.8-0.4,3.3v29.8c0,1.4,0.1,2.5,0.4,3.2c0.2,0.7,0.7,1.2,1.4,1.4
				c0.7,0.2,1.7,0.4,3.1,0.5v1.2c-0.8-0.1-1.9-0.1-3.3-0.2c-1.4,0-2.8,0-4.4,0c-1.4,0-2.7,0-4.1,0C89.2,280.1,88,280.1,87.1,280.2z"
				/>
			<path class="st37" d="M137.4,237.7c-0.2,1.4-0.3,2.8-0.3,4.1c-0.1,1.3-0.1,2.3-0.1,3c0,0.7,0,1.4,0.1,2.1c0,0.7,0.1,1.2,0.1,1.7
				h-1.4c-0.2-2.4-0.6-4.2-1-5.6c-0.4-1.4-1.2-2.4-2.2-2.9c-1.1-0.6-2.6-0.9-4.8-0.9h-5c-1.4,0-2.4,0.1-3.1,0.3
				c-0.7,0.2-1.2,0.7-1.4,1.4c-0.2,0.7-0.4,1.8-0.4,3.3v29.8c0,1.4,0.1,2.5,0.4,3.2c0.2,0.7,0.7,1.2,1.4,1.4
				c0.7,0.2,1.7,0.3,3.1,0.3h4.4c2.5,0,4.4-0.3,5.7-1c1.3-0.7,2.2-1.8,2.8-3.3c0.6-1.5,1-3.6,1.3-6.3h1.4c-0.1,1.1-0.2,2.5-0.2,4.3
				c0,0.8,0,1.9,0.1,3.3c0.1,1.4,0.2,2.9,0.3,4.4c-2-0.1-4.3-0.1-6.9-0.2c-2.6,0-4.8,0-6.8,0c-1.2,0-2.8,0-4.8,0s-4.1,0-6.3,0
				c-2.2,0-4.3,0.1-6.3,0.2V279c1.4-0.1,2.4-0.2,3.1-0.5c0.7-0.2,1.2-0.7,1.4-1.4c0.2-0.7,0.4-1.8,0.4-3.2v-29.8
				c0-1.5-0.1-2.6-0.4-3.3c-0.2-0.7-0.7-1.2-1.4-1.4c-0.7-0.3-1.7-0.4-3.1-0.5v-1.2c2,0,4.1,0.1,6.3,0.1c2.2,0,4.4,0.1,6.3,0.1
				s3.6,0,4.8,0c1.8,0,3.9,0,6.3,0C133.5,237.8,135.5,237.8,137.4,237.7z M127.1,258.2v1.2h-11v-1.2H127.1z M128.8,250.3
				c-0.2,2.3-0.2,4-0.2,5.2c0,1.2,0,2.3,0,3.3c0,1,0,2.1,0.1,3.3c0,1.2,0.1,2.9,0.3,5.2h-1.4c-0.2-1.3-0.4-2.5-0.6-3.8
				c-0.2-1.2-0.7-2.2-1.4-3c-0.7-0.8-2-1.2-3.8-1.2v-1.2c1.8,0,3-0.5,3.7-1.4c0.7-0.9,1.1-2,1.4-3.2c0.2-1.2,0.4-2.3,0.5-3.3H128.8z
				"/>
			<path class="st37" d="M206.1,237.7v1.2c-1.4,0-2.4,0.2-3.1,0.5c-0.7,0.3-1.2,0.7-1.4,1.4s-0.4,1.8-0.4,3.3v29.8
				c0,1.4,0.1,2.5,0.4,3.2s0.7,1.2,1.4,1.4c0.7,0.2,1.7,0.4,3.1,0.5v1.2c-0.9-0.1-2.1-0.1-3.5-0.2c-1.4,0-2.8,0-4.2,0
				c-1.6,0-3,0-4.4,0c-1.4,0-2.5,0.1-3.3,0.2V279c1.4-0.1,2.4-0.2,3.1-0.5c0.7-0.2,1.2-0.7,1.4-1.4c0.2-0.7,0.4-1.8,0.4-3.2v-33
				l0.2,0.2l-14.7,39.5h-1l-15.1-38.9v31.7c0,1.4,0.1,2.6,0.4,3.4c0.3,0.8,0.8,1.4,1.6,1.7c0.8,0.3,2,0.6,3.5,0.6v1.2
				c-0.7-0.1-1.7-0.1-2.8-0.2c-1.2,0-2.3,0-3.3,0c-1,0-2,0-3,0c-1,0-1.9,0.1-2.6,0.2V279c1.4-0.1,2.4-0.3,3.1-0.6
				c0.7-0.3,1.2-0.9,1.4-1.7c0.2-0.8,0.4-1.9,0.4-3.4v-29.2c0-1.5-0.1-2.6-0.4-3.3c-0.2-0.7-0.7-1.2-1.4-1.4
				c-0.7-0.3-1.7-0.4-3.1-0.5v-1.2c0.7,0,1.5,0.1,2.6,0.1c1,0,2,0.1,3,0.1c0.9,0,1.8,0,2.7-0.1c0.9,0,1.7-0.1,2.4-0.1l13.6,35.9
				l-1,0.5l13.5-36.2c0.5,0,1,0,1.4,0c0.5,0,0.9,0,1.4,0c1.4,0,2.8,0,4.2-0.1C204.1,237.8,205.2,237.7,206.1,237.7z"/>
			<path class="st37" d="M241.1,237.7c-0.2,1.4-0.3,2.8-0.3,4.1c-0.1,1.3-0.1,2.3-0.1,3c0,0.7,0,1.4,0.1,2.1s0.1,1.2,0.1,1.7h-1.4
				c-0.2-2.4-0.6-4.2-1-5.6c-0.4-1.4-1.2-2.4-2.2-2.9c-1.1-0.6-2.7-0.9-4.8-0.9h-5c-1.4,0-2.4,0.1-3.1,0.3c-0.7,0.2-1.2,0.7-1.4,1.4
				c-0.2,0.7-0.4,1.8-0.4,3.3v29.8c0,1.4,0.1,2.5,0.4,3.2c0.2,0.7,0.7,1.2,1.4,1.4c0.7,0.2,1.7,0.3,3.1,0.3h4.4c2.5,0,4.4-0.3,5.7-1
				c1.3-0.7,2.2-1.8,2.8-3.3c0.6-1.5,1-3.6,1.3-6.3h1.4c-0.1,1.1-0.2,2.5-0.2,4.3c0,0.8,0,1.9,0.1,3.3c0.1,1.4,0.2,2.9,0.3,4.4
				c-2-0.1-4.3-0.1-6.9-0.2c-2.6,0-4.8,0-6.8,0c-1.2,0-2.8,0-4.8,0c-2,0-4.1,0-6.3,0c-2.2,0-4.3,0.1-6.3,0.2V279
				c1.4-0.1,2.4-0.2,3.1-0.5c0.7-0.2,1.2-0.7,1.4-1.4c0.2-0.7,0.4-1.8,0.4-3.2v-29.8c0-1.5-0.1-2.6-0.4-3.3
				c-0.2-0.7-0.7-1.2-1.4-1.4c-0.7-0.3-1.7-0.4-3.1-0.5v-1.2c2,0,4.1,0.1,6.3,0.1c2.2,0,4.3,0.1,6.3,0.1c2,0,3.6,0,4.8,0
				c1.8,0,3.9,0,6.3,0C237.2,237.8,239.3,237.8,241.1,237.7z M230.8,258.2v1.2h-11v-1.2H230.8z M232.5,250.3c-0.2,2.3-0.2,4-0.2,5.2
				c0,1.2,0,2.3,0,3.3c0,1,0,2.1,0.1,3.3c0,1.2,0.1,2.9,0.3,5.2h-1.4c-0.2-1.3-0.4-2.5-0.6-3.8c-0.2-1.2-0.7-2.2-1.4-3
				s-2-1.2-3.8-1.2v-1.2c1.8,0,3-0.5,3.7-1.4c0.7-0.9,1.1-2,1.3-3.2c0.2-1.2,0.4-2.3,0.5-3.3H232.5z"/>
			<path class="st37" d="M247.7,237.7c0.8,0,1.9,0.1,3.3,0.1c1.4,0,2.7,0.1,4,0.1c1.9,0,3.7,0,5.4-0.1c1.7,0,2.9-0.1,3.7-0.1
				c4.8,0,8.5,1,10.9,3c2.4,2,3.6,4.5,3.6,7.4c0,1.2-0.2,2.5-0.7,3.8c-0.5,1.4-1.3,2.6-2.5,3.8c-1.2,1.2-2.8,2.2-4.8,3
				s-4.6,1.2-7.7,1.2H257v-1.2h5.2c2.8,0,5-0.4,6.5-1.3s2.5-2.1,3.1-3.6s0.8-3.2,0.8-5c0-3.2-0.8-5.6-2.2-7.3s-4.1-2.6-7.7-2.6
				c-1.8,0-3,0.3-3.6,1c-0.6,0.7-0.8,2.1-0.8,4.1v29.8c0,1.4,0.1,2.5,0.4,3.2c0.2,0.7,0.7,1.2,1.4,1.4c0.7,0.2,1.7,0.4,3.1,0.5v1.2
				c-0.9-0.1-2.1-0.1-3.5-0.2c-1.4,0-2.8,0-4.2,0c-1.6,0-3,0-4.4,0c-1.4,0-2.5,0.1-3.3,0.2V279c1.4-0.1,2.4-0.2,3.1-0.5
				c0.7-0.2,1.2-0.7,1.4-1.4c0.2-0.7,0.4-1.8,0.4-3.2v-29.8c0-1.5-0.1-2.6-0.4-3.3c-0.2-0.7-0.7-1.2-1.4-1.4
				c-0.7-0.3-1.7-0.4-3.1-0.5V237.7z M257.3,259c2.2,0.1,3.9,0.2,5.1,0.3c1.2,0.1,2.2,0.2,3,0.3c0.8,0.1,1.5,0.2,2.2,0.3
				c2.7,0.4,4.6,1.2,5.8,2.4c1.2,1.2,2,3,2.6,5.5l1.5,6.1c0.4,1.8,0.8,3,1.2,3.8c0.4,0.8,1.1,1.2,1.9,1.1c0.7,0,1.2-0.3,1.7-0.7
				c0.5-0.4,0.9-0.9,1.5-1.6l0.9,0.7c-0.8,1.2-1.7,2.2-2.6,2.8c-0.9,0.7-2.2,1-3.8,1c-1.5,0-2.8-0.4-3.9-1.3c-1.1-0.9-2-2.6-2.5-5.2
				l-1.3-6c-0.4-1.7-0.8-3.2-1.2-4.5c-0.5-1.3-1.1-2.2-1.9-3c-0.8-0.7-2-1.1-3.6-1.1h-6.5L257.3,259z"/>
			<path class="st37" d="M333.8,237.7v1.2c-1.4,0-2.4,0.2-3.1,0.5c-0.7,0.3-1.2,0.7-1.4,1.4s-0.4,1.8-0.4,3.3v29.8
				c0,1.4,0.1,2.5,0.4,3.2s0.7,1.2,1.4,1.4c0.7,0.2,1.7,0.4,3.1,0.5v1.2c-0.9-0.1-2.1-0.1-3.5-0.2c-1.4,0-2.8,0-4.2,0
				c-1.6,0-3,0-4.4,0c-1.4,0-2.5,0.1-3.3,0.2V279c1.4-0.1,2.4-0.2,3.1-0.5c0.7-0.2,1.2-0.7,1.4-1.4c0.2-0.7,0.4-1.8,0.4-3.2v-33
				l0.2,0.2l-14.7,39.5h-1l-15.1-38.9v31.7c0,1.4,0.1,2.6,0.4,3.4c0.3,0.8,0.8,1.4,1.6,1.7c0.8,0.3,2,0.6,3.5,0.6v1.2
				c-0.7-0.1-1.7-0.1-2.8-0.2c-1.2,0-2.3,0-3.3,0c-1,0-2,0-3,0c-1,0-1.9,0.1-2.6,0.2V279c1.4-0.1,2.4-0.3,3.1-0.6
				c0.7-0.3,1.2-0.9,1.4-1.7c0.2-0.8,0.4-1.9,0.4-3.4v-29.2c0-1.5-0.1-2.6-0.4-3.3c-0.2-0.7-0.7-1.2-1.4-1.4
				c-0.7-0.3-1.7-0.4-3.1-0.5v-1.2c0.7,0,1.5,0.1,2.6,0.1c1,0,2,0.1,3,0.1c0.9,0,1.8,0,2.7-0.1c0.9,0,1.7-0.1,2.4-0.1l13.6,35.9
				l-1,0.5l13.5-36.2c0.5,0,1,0,1.4,0c0.5,0,0.9,0,1.4,0c1.4,0,2.8,0,4.2-0.1C331.8,237.8,332.9,237.7,333.8,237.7z"/>
			<path class="st37" d="M355.7,237.4l14.6,37.7c0.6,1.5,1.3,2.5,2,3s1.5,0.8,2.1,0.8v1.2c-0.8-0.1-1.8-0.1-2.9-0.2
				c-1.2,0-2.3,0-3.5,0c-1.6,0-3,0-4.4,0c-1.4,0-2.5,0.1-3.3,0.2V279c2-0.1,3.3-0.4,3.9-1c0.6-0.6,0.4-2-0.4-4l-11.2-29.8l1-0.8
				l-10.4,27.1c-0.8,2.2-1.2,3.8-1.2,5.1c0,1.2,0.5,2.1,1.4,2.6c0.9,0.5,2.2,0.8,3.8,0.8v1.2c-1.1-0.1-2.3-0.1-3.5-0.2
				c-1.2,0-2.3,0-3.4,0c-1,0-1.9,0-2.5,0c-0.7,0-1.4,0.1-2,0.2V279c0.8-0.2,1.6-0.7,2.5-1.4c0.8-0.7,1.6-2,2.3-3.8l14.1-36.4
				c0.2,0,0.3,0,0.5,0C355.4,237.4,355.6,237.4,355.7,237.4z M363,262.9v1.2h-17.9l0.6-1.2H363z"/>
			<path class="st37" d="M392,237.7v1.2c-1.4,0-2.4,0.2-3.1,0.5c-0.7,0.3-1.2,0.7-1.4,1.4c-0.2,0.7-0.4,1.8-0.4,3.3v29.8
				c0,1.4,0.1,2.5,0.4,3.2c0.2,0.7,0.7,1.2,1.4,1.4c0.7,0.2,1.7,0.4,3.1,0.5v1.2c-0.9-0.1-2.1-0.1-3.5-0.2c-1.4,0-2.8,0-4.2,0
				c-1.6,0-3,0-4.4,0c-1.4,0-2.5,0.1-3.3,0.2V279c1.4-0.1,2.4-0.2,3.1-0.5c0.7-0.2,1.2-0.7,1.4-1.4c0.2-0.7,0.4-1.8,0.4-3.2v-29.8
				c0-1.5-0.1-2.6-0.4-3.3c-0.2-0.7-0.7-1.2-1.4-1.4c-0.7-0.3-1.7-0.4-3.1-0.5v-1.2c0.8,0,1.9,0.1,3.3,0.1c1.4,0,2.8,0.1,4.4,0.1
				c1.4,0,2.8,0,4.2-0.1C389.9,237.8,391,237.7,392,237.7z"/>
			<path class="st37" d="M413.4,237.7c7.2,0,12.5,1.8,16,5.4c3.5,3.6,5.2,8.7,5.2,15.4c0,4.4-0.9,8.2-2.5,11.4
				c-1.7,3.3-4.2,5.8-7.4,7.6s-7.2,2.7-11.8,2.7c-0.9,0-2.2,0-3.9-0.1c-1.7-0.1-3.2-0.1-4.5-0.1c-1.4,0-2.8,0-4.1,0
				c-1.4,0-2.5,0.1-3.3,0.2V279c1.4-0.1,2.4-0.2,3.1-0.5c0.7-0.2,1.2-0.7,1.4-1.4c0.2-0.7,0.4-1.8,0.4-3.2v-29.8
				c0-1.5-0.1-2.6-0.4-3.3c-0.2-0.7-0.7-1.2-1.4-1.4c-0.7-0.3-1.7-0.4-3.1-0.5v-1.2c0.8,0,1.9,0.1,3.3,0.2c1.4,0.1,2.7,0.1,4,0
				c1.4,0,3-0.1,4.7-0.1C410.8,237.7,412.3,237.7,413.4,237.7z M411.9,238.8c-1.8,0-3,0.3-3.6,1c-0.6,0.7-0.8,2.1-0.8,4.1v30
				c0,2.1,0.3,3.5,0.9,4.1c0.6,0.7,1.8,1,3.6,1c4.4,0,7.7-0.8,10.1-2.4c2.4-1.6,4.1-3.9,5-6.9c1-3,1.4-6.7,1.4-11.1
				c0-6.7-1.2-11.7-3.7-15C422.4,240.4,418.1,238.8,411.9,238.8z"/>
		</g>
	</g>
	<g>
		<g>
		</g>
	</g>
</g>
</svg>
